<?xml version="1.0" standalone="no"?>
<!DOCTYPE svg PUBLIC "-//W3C//DTD SVG 20010904//EN"
 "http://www.w3.org/TR/2001/REC-SVG-20010904/DTD/svg10.dtd">
<svg version="1.0" xmlns="http://www.w3.org/2000/svg"
 width="700.000000pt" height="700.000000pt" viewBox="0 0 700.000000 700.000000"
 preserveAspectRatio="xMidYMid meet">
<metadata>
Created by potrace 1.11, written by Peter Selinger 2001-2013
</metadata>
<g transform="translate(0.000000,700.000000) scale(0.100000,-0.100000)"
fill="#000000" stroke="none">
<path d="M3479 5988 c-1 -7 -2 -20 -3 -28 0 -8 -8 -15 -16 -15 -13 0 -15 -31
-18 -212 -2 -201 -1 -213 16 -213 17 0 18 -17 18 -335 l0 -335 -103 0 -103 0
0 150 0 150 -203 0 -203 0 1 -150 1 -150 -193 0 -193 0 0 150 0 150 -155 0
-155 0 0 -302 1 -303 91 -70 c50 -38 96 -74 102 -80 6 -5 49 -39 96 -75 47
-35 87 -67 90 -70 3 -3 33 -27 68 -54 48 -37 62 -53 63 -74 0 -37 0 -897 0
-946 l-1 -39 -232 6 c-128 4 -246 9 -263 11 -16 2 -59 7 -95 11 -36 4 -87 11
-114 16 -27 5 -50 9 -51 9 -2 0 -10 18 -19 40 -20 50 -20 103 -1 203 19 101
20 98 -12 93 -16 -2 -66 -8 -113 -12 -47 -3 -98 -8 -115 -10 -228 -22 -530
-21 -615 1 -8 2 -33 6 -55 10 -100 14 -282 76 -411 139 -77 37 -239 132 -334
196 -47 31 -91 60 -97 64 -21 12 235 -390 301 -474 11 -14 59 -63 106 -110 90
-89 170 -140 269 -170 l54 -17 -74 -41 c-224 -123 -374 -167 -558 -164 l-94 2
29 -26 c144 -127 347 -208 579 -230 84 -8 333 -9 399 -1 l38 5 -5 -47 c-3 -25
-17 -83 -32 -128 -14 -46 -27 -99 -28 -120 -2 -36 -1 -37 48 -48 45 -11 116
-24 215 -41 56 -9 87 -13 168 -20 43 -4 95 -8 117 -11 22 -2 255 -5 519 -7
l478 -3 0 -284 c-1 -156 -1 -300 -1 -319 l-1 -35 -555 1 c-416 1 -555 -2 -559
-11 -3 -9 452 -12 1934 -12 1495 0 1937 3 1934 12 -4 9 -143 12 -572 12 l-567
-1 0 312 -1 312 141 1 c239 1 577 15 820 33 73 6 288 30 375 42 19 3 51 7 70
10 138 18 140 20 136 57 -3 18 -18 81 -35 141 -17 60 -31 120 -31 132 0 21 3
22 58 17 78 -7 314 -6 386 1 140 15 282 54 391 108 49 24 205 133 205 143 0 1
-48 3 -107 3 -165 0 -325 46 -493 139 -36 20 -78 43 -95 52 l-30 15 56 16 c89
27 176 79 257 155 73 67 206 234 239 299 9 17 19 33 22 36 4 3 38 56 75 118
38 62 73 115 77 118 5 3 9 12 9 20 0 10 -17 2 -52 -24 -274 -199 -586 -338
-853 -378 -98 -15 -348 -20 -485 -9 -149 11 -287 23 -348 30 l-33 4 6 -42 c3
-23 8 -86 12 -139 7 -114 -4 -154 -45 -162 -112 -23 -332 -38 -577 -40 l-150
-1 0 499 0 500 30 27 c16 15 95 82 175 149 80 67 167 141 193 163 27 23 55 46
63 50 12 7 14 62 14 312 l0 305 -165 0 -165 0 1 -107 c0 -60 0 -127 0 -150
l-1 -43 -183 0 -182 0 0 133 c0 72 -1 140 -3 150 -4 15 -22 17 -203 17 l-199
0 0 -150 0 -150 -85 0 -85 0 0 335 0 335 423 0 422 1 -51 47 c-27 26 -77 70
-110 99 l-59 52 108 108 c59 60 107 111 107 113 0 3 -188 5 -417 5 l-418 0 -3
28 c-3 27 -21 38 -23 15z"/>
</g>
</svg>
