<svg width="31" height="31" viewBox="0 0 31 31" fill="none" xmlns="http://www.w3.org/2000/svg">
<path fill-rule="evenodd" clip-rule="evenodd" d="M6.26227 1.0804C6.19458 1.0807 6.12701 1.08234 6.05956 1.08525C5.90535 1.09191 5.7518 1.10547 5.59916 1.1263C4.37811 1.29262 3.22827 1.95379 2.43111 3.16491C0.940868 5.42936 2.56395 9.10002 5.85958 9.10002C5.89203 9.10002 5.92363 9.09929 5.95542 9.09869V9.14131H9.62244C8.97108 11.0784 7.78799 13.1735 6.44688 15.2826C6.31598 15.4884 6.18931 15.699 6.06604 15.9126L8.17779 18.0762L4.77125 18.6467C2.78967 23.8517 3.11105 29.6707 7.69427 29.6707V29.6706L8.25796 29.6746C9.70079 29.6401 11.0874 29.4143 11.971 28.8943C12.2237 28.7455 12.433 28.5772 12.6047 28.3845H10.6402C9.40932 28.7448 8.16992 27.9643 7.77056 26.815C7.2283 25.2547 8.22587 23.6448 9.7 23.1548C10.0514 23.038 10.4098 22.9832 10.7635 22.9832V22.9587H21.5608C21.5263 20.2702 22.5508 17.5019 24.5388 15.3297C25.9892 13.7449 27.0836 11.6592 27.6448 9.58712L25.1488 8.07756L27.466 7.65943L24.8401 6.09689H24.8398L24.8399 6.09677L24.8401 6.09689L27.9962 5.56105C27.6794 3.19161 26.25 1.43702 23.3117 1.43702C20.6548 1.95325 13.4479 2.1367 9.04186 1.72535C8.14044 1.31587 7.19233 1.0761 6.26227 1.0804ZM6.29037 2.21281C7.08577 2.21541 7.94978 2.44313 8.78774 2.85642L8.78974 2.85219C9.07231 3.13887 9.30693 3.44173 9.49693 3.75948H5.02034L5.66056 4.65436C6.30284 5.55227 6.85957 6.59126 6.93749 7.19879C6.97642 7.50255 6.93083 7.63273 6.82766 7.73378C6.72443 7.83489 6.45057 7.9684 5.85952 7.9684C3.4021 7.9684 2.41573 5.24669 3.37637 3.78703C4.01029 2.82391 4.81823 2.37465 5.75186 2.2475C5.92684 2.22359 6.10685 2.2122 6.29037 2.21281ZM7.17459 4.89098H9.9767C10.2355 5.84363 10.1981 6.89327 9.94377 8.00975H7.96291C8.07795 7.70538 8.10023 7.36953 8.05979 7.05493C7.96733 6.33363 7.61144 5.59787 7.17459 4.89098ZM13.3233 24.0901C13.7132 24.5042 14.001 25.0171 14.1328 25.5986C14.3627 26.6119 14.32 27.4881 14.0258 28.2144C13.7518 28.891 13.2644 29.4127 12.6762 29.7886H27.0374C27.9121 29.7886 28.5442 29.4449 28.987 28.9217C29.4297 28.3986 29.6651 27.6797 29.6351 26.9629C29.6239 26.6921 29.5759 26.4233 29.4894 26.1649L25.2566 25.6681L27.8006 24.4252C27.2968 24.2168 26.672 24.09 25.9009 24.09H13.3233V24.0901ZM10.7399 24.1207C10.6701 24.1206 10.6003 24.1236 10.5306 24.13C10.3712 24.1446 10.2124 24.1769 10.0569 24.2287C9.142 24.5326 8.52273 25.5329 8.83927 26.4437C9.06166 27.0837 9.76848 27.516 10.3925 27.2876L10.4867 27.2531H13.1116C13.1689 26.868 13.1573 26.4126 13.0294 25.8489C12.8048 24.8584 11.7856 24.1243 10.7398 24.1209L10.7399 24.1207Z" fill="#BC631C"/>
<path d="M11.9995 15.2779L14.5479 18.7907L22.2975 12.469" stroke="#653737" stroke-opacity="0.8" stroke-width="2"/>
</svg>
