<svg width="120" height="120" viewBox="0 0 120 120" fill="none" xmlns="http://www.w3.org/2000/svg">
<path fill-rule="evenodd" clip-rule="evenodd" d="M17.1531 28.449C19.5051 29.676 39.5221 33.937 51.1251 33.676C67.6531 33.937 81.4401 27.626 84.0501 26.62C84.0501 28.054 81.7501 36.893 81.4401 42.3C81.4401 47.747 83.2701 70.714 83.5301 76.01C84.4001 82.189 86.2301 89.872 87.9701 95.09C89.8001 98.64 64.4091 104.94 53.2161 105.54C40.6141 106.32 14.2791 101.17 15.8471 97.18C15.8471 93.209 19.5051 83.795 19.5051 77.578C20.0281 71.553 19.2441 54.306 19.2441 46.742C18.9831 39.963 18.1901 34.182 17.1531 28.449V28.449Z" fill="#FBD900" stroke="black" stroke-linejoin="round"/>
<path fill-rule="evenodd" clip-rule="evenodd" d="M15.3239 98.22C9.73793 96.89 7.44493 108.34 13.4949 110.24C19.8619 114 43.1979 117.3 52.6929 116.52C63.7939 116.25 83.8899 112.07 88.4899 108.15C94.6299 104.23 93.9599 95.09 88.4899 96.13C85.2199 99.79 61.7959 105.02 51.9089 105.54C42.6869 106.32 21.1599 103.01 15.3239 98.22V98.22Z" fill="#FBF3BF" stroke="black"/>
<path fill-rule="evenodd" clip-rule="evenodd" d="M82.0701 37.609C83.3201 34.398 91.7101 30.638 94.4401 30.094C99.1201 29.043 106.82 28.706 111.2 34.374C119.14 44.697 117.96 62.999 114.06 69.012C111.29 74.115 104.69 79.293 99.4301 80.889C94.2701 82.423 86.7201 83.55 85.0901 84.601C84.7401 83.304 83.7701 77.213 83.7101 75.53C85.6601 75.658 91.2001 74.637 95.4101 73.662C99.3101 72.763 101.86 70.387 104.74 67.439C109.74 62.739 109.09 46.28 105.28 42.383C103.05 40.12 98.4301 38.478 95.3701 39.06C90.3701 40.091 81.6901 46.425 81.6901 46.039C81.1801 43.96 81.4401 39.88 82.0701 37.609V37.609Z" fill="#FBF3BF" stroke="black" stroke-width="1.25" stroke-linejoin="bevel"/>
<path fill-rule="evenodd" clip-rule="evenodd" d="M36.712 41.931C38.368 43.138 35.357 58.886 35.771 70.062C36.185 84.358 37.214 93.59 35.249 94.698C32.142 96.37 25.348 94.562 23.204 92.277C21.93 90.77 25.01 82.037 25.216 75.849C24.803 67.137 23.514 42.545 24.755 41.071C27.008 39.017 34.436 39.918 36.712 41.931V41.931Z" fill="#FBE600" stroke="black" stroke-width="1.25" stroke-linejoin="round"/>
<path fill-rule="evenodd" clip-rule="evenodd" d="M45.303 42.6C43.824 44.025 45.239 62.225 45.239 65.159C45.545 68.968 44.138 92.612 45.062 94.114C46.91 96.24 55.278 96.56 58.063 93.757C59.568 91.883 57.585 71.213 57.585 66.078C57.585 60.567 58.992 44.026 57.144 42.498C55.112 40.348 48.705 39.318 45.303 42.6V42.6Z" fill="#FBE600" stroke="black"/>
<path fill-rule="evenodd" clip-rule="evenodd" d="M64.9909 41.156C63.3329 42.412 66.1709 56.956 66.1849 68.138C66.3229 82.438 64.9409 92.8 67.0089 93.847C70.2769 95.43 77.8899 92.306 80.0099 89.956C81.2599 88.412 78.5979 79.778 77.9279 73.599C76.9439 65.435 78.0749 40.47 76.7379 39.035C74.3369 37.051 67.2569 39.075 64.9909 41.156V41.156Z" fill="#FBE600" stroke="black" stroke-width="1.25" stroke-linejoin="round"/>
<path fill-rule="evenodd" clip-rule="evenodd" d="M58.272 34.684C53.283 35.793 21.685 31.543 18.544 29.88C19.468 34.499 21.685 75.152 20.207 79.771C20.392 81.804 16.326 94.924 16.511 97.7C33.696 29.325 56.24 48.728 58.272 34.684V34.684Z" fill="url(#paint0_linear)"/>
<path fill-rule="evenodd" clip-rule="evenodd" d="M14.7169 98.87C11.6659 97.98 9.51194 105.69 11.8459 108.03C17.5889 110.72 25.1269 105.69 50.0759 106.41C37.3319 106.05 18.4869 103.54 14.7169 98.87V98.87Z" fill="url(#paint1_linear)"/>
<path fill-rule="evenodd" clip-rule="evenodd" d="M83.2801 37.13C87.7701 32.643 92.0701 31.566 97.2801 30.669C106.07 28.335 112.18 34.438 114.15 42.515C109.66 35.335 103.92 34.258 99.9701 34.079C95.8401 34.797 84.1801 41.976 83.1001 43.233C82.0201 44.489 82.3801 39.104 83.2801 37.13Z" fill="url(#paint2_linear)"/>
<path fill-rule="evenodd" clip-rule="evenodd" d="M16.098 80.903C18.482 82.062 20.38 79.334 19.563 77.873C20.478 77.96 21.358 77.548 21.358 76.078C22.079 75.358 20.994 74.224 20.994 73.342C20 72.349 20.999 71.177 20.999 69.617C20.999 68.063 21.897 67.114 21.897 65.489C21.897 63.127 23.956 64.308 22.794 60.822C23.882 60.397 25.068 59.337 23.692 58.13C25.852 57.89 26.91 55.776 24.23 53.463C28.303 53.463 20 44.733 26.922 46.463C29.144 45.908 28.717 44.248 28.717 42.156C31.589 46.104 35.613 44.777 36.255 42.156C37.604 46.555 46.845 44.743 46.845 39.284C47.024 46.034 53.963 42.688 55.281 43.233C53.665 45.099 56.865 52.312 59.588 52.386C53.279 57.118 54.415 65.387 62.101 66.924C65.995 66.924 67.486 63.646 67.486 59.027C68.742 61.672 74.458 63.307 74.486 58.848C77.357 64.392 80.98 57.377 78.793 56.694C83.82 58.599 81.88 49.615 80.05 47.54C82.92 46.626 82.01 40.019 80.23 37.848C82.85 40.513 86.97 37.017 86.51 31.925C87.74 35.392 95.66 31.557 90.28 23.489C90.28 21.944 85.79 21.74 84.72 22.951C84.7 17.505 80.62 13.259 77.716 14.336C79.52 11.643 68.668 9.43701 66.409 13.797C67.759 8.09601 52.598 4.46391 52.23 7.69501C50.481 5.18201 40.459 5.13601 37.512 13.977C37.512 9.116 21.203 6.97701 21.538 14.336C18.048 11.902 12.31 14.695 12.743 17.566C7.35799 14.863 4.90099 27.127 9.33299 27.797C6.81999 30.059 6.64099 39.108 9.87099 38.925C7.89699 41.055 8.97399 47.361 11.128 47.54C9.44799 49.861 11.373 61.214 18.307 59.386C18.307 61.91 19.016 64.08 18.128 66.745C18.128 68.29 17.23 69.598 17.23 71.232C17.602 71.976 15.97 73.956 17.769 75.181C13.552 76.94 14.466 79.645 16.098 80.903V80.903Z" fill="white" stroke="black" stroke-linejoin="round"/>
<path d="M16.007 36.137C14.498 34.488 17.229 29.098 20.25 29.375C20.939 26.901 22.836 26.482 24.938 27.188C23.89 25.143 26.441 23.196 28.688 25.506C30.205 22.884 33.365 20.861 35.044 22.274C34.912 18.901 41.107 15.481 43.375 18.438C43.375 19.044 43.012 20.312 43.375 20.312" stroke="black" stroke-linejoin="round"/>
<path d="M53.0621 25.938C52.9591 21.217 67.0721 17.347 64.3121 25.625C65.5821 24.99 71.1881 24.326 70.1571 27.938C74.2801 27.473 80.5501 29.043 76.8191 34.627C79.2101 36.432 78.1491 41.322 76.5001 39.688" stroke="black" stroke-linejoin="round"/>
<defs>
<linearGradient id="paint0_linear" x1="25.3804" y1="37.8278" x2="62.9814" y2="55.9847" gradientUnits="userSpaceOnUse">
<stop stop-color="white" stop-opacity="0.5"/>
<stop offset="1" stop-color="white" stop-opacity="0.1"/>
</linearGradient>
<linearGradient id="paint1_linear" x1="13.4174" y1="100.192" x2="14.9491" y2="118.558" gradientUnits="userSpaceOnUse">
<stop stop-color="white" stop-opacity="0.5"/>
<stop offset="1" stop-color="white" stop-opacity="0.1"/>
</linearGradient>
<linearGradient id="paint2_linear" x1="87.3754" y1="31.1945" x2="93.6059" y2="53.0352" gradientUnits="userSpaceOnUse">
<stop stop-color="white" stop-opacity="0.5"/>
<stop offset="1" stop-color="white" stop-opacity="0.1"/>
</linearGradient>
</defs>
</svg>
