<svg width="32" height="32" viewBox="0 0 32 32" fill="none" xmlns="http://www.w3.org/2000/svg">
<path d="M23.3477 1.15038C22.3717 1.13994 21.6033 1.43925 21.3125 2.07225C19.8889 5.17257 18.2661 7.5185 16.3691 9.40225C16.5596 9.46569 16.747 9.54538 16.9278 9.63869C17.7394 10.0579 18.507 10.7499 19.1348 11.5664C19.7625 12.3828 20.2504 13.3235 20.4335 14.2851C20.4801 14.5294 20.506 14.7779 20.5059 15.0253C22.9415 13.5028 25.822 12.4489 29.3106 11.8183C30.2424 11.6498 30.7888 10.0288 30.6484 8.15232L28.4511 8.08982L30.3611 6.539C30.1019 5.63232 29.6728 4.74188 29.0389 3.994C28.0684 2.84938 26.7621 2.033 25.4939 1.57613L23.8713 2.55075L24.047 1.207C23.8048 1.17263 23.5714 1.15263 23.3478 1.15032L23.3477 1.15038ZM15.4336 10.4101C15.3672 10.4134 15.3049 10.4243 15.2461 10.4395C14.4976 11.0804 13.708 11.6643 12.875 12.207C12.9276 12.2276 12.9794 12.2487 13.0313 12.2715C13.9139 12.6585 14.7461 13.3431 15.4356 14.1856C16.2704 15.2057 16.9119 16.4943 17.0371 17.7949C17.683 17.147 18.3646 16.5485 19.0899 15.9999C19.3459 15.5903 19.398 15.0957 19.2852 14.5038C19.1487 13.7876 18.7451 12.9769 18.2071 12.2773C17.6689 11.5776 16.9958 10.9884 16.3906 10.6757C16.0124 10.4803 15.6935 10.3976 15.4336 10.4101L15.4336 10.4101ZM11.5644 13.1153C11.4779 13.1186 11.3963 13.1321 11.3164 13.1504C9.00395 14.448 6.37344 15.5244 3.35944 16.6504C3.39532 16.653 3.43069 16.6562 3.46694 16.6601C4.13113 16.7324 4.78419 16.9731 5.41413 17.3398L7.76957 16.3125L6.78126 18.3575C7.15595 18.697 7.51895 19.0748 7.86526 19.4825C9.16276 21.0096 10.238 22.9741 10.8086 24.9883C10.8088 24.9889 10.8084 24.9896 10.8086 24.9903C10.9949 25.647 11.128 26.2975 11.2031 26.9278C12.515 23.9004 13.9769 21.349 15.7246 19.2403C16.1809 17.8978 15.588 16.2148 14.5332 14.9259C13.9432 14.2048 13.2222 13.631 12.5626 13.3418C12.1916 13.1791 11.8582 13.1038 11.5644 13.1152V13.1153ZM20.4161 16.543C19.9592 16.8586 19.5122 17.1999 19.0763 17.5625C21.5238 18.1413 22.8858 19.7951 24.1172 21.4473C24.7712 22.3248 25.4046 23.2041 26.1875 23.9903C27.6994 24.5619 28.8856 24.389 30.1816 23.0566C24.4213 21.3204 24.1748 17.2685 20.416 16.5429L20.4161 16.543ZM3.03713 17.8066C2.35757 17.8207 1.89588 18.1663 1.57813 18.8438C1.21501 19.6179 1.13351 20.8731 1.60551 22.4102C1.96488 23.5808 2.63801 24.7676 3.40238 25.6368C4.16676 26.5059 5.02113 27.0165 5.61326 27.0371H5.61526C5.84757 27.0453 6.02482 26.9945 6.16601 26.8653L6.15432 26.8535L6.28513 26.7226C6.33469 26.6496 6.38013 26.5634 6.42182 26.4609C6.59745 26.0297 6.62682 25.3014 6.30657 24.3984C5.87626 23.1849 5.11157 22.4027 4.22063 22.2247L2.78513 21.9394L4.02344 21.1582L6.42782 19.6466C5.3872 18.5952 4.26845 17.9211 3.34182 17.8203C3.23557 17.8088 3.13413 17.8047 3.03707 17.8067L3.03713 17.8066ZM17.8028 18.1445L16.2696 19.7304C22.5473 20.8478 19.7353 28.5433 26.2265 30.7422L24.6778 27.1622C26.7256 28.1716 28.8896 28.5761 30.7853 27.9141C22.2996 25.2923 24.7653 19.9776 17.8028 18.1445ZM7.21088 20.5333L5.58788 21.5547C6.41163 22.0859 7.03851 22.965 7.4082 24.0078C7.56882 24.4606 7.66651 24.8956 7.70507 25.3066L9.17007 23.8457C8.66507 22.6463 7.98038 21.4978 7.21101 20.5332L7.21088 20.5333ZM9.60938 25.0566L6.98044 27.6816L6.9707 27.6719C6.70476 27.9183 6.3797 28.0947 6.02157 28.168C7.47582 29.0976 8.81182 29.3771 9.57232 28.7656C9.83857 28.5515 10.0125 28.2431 10.1017 27.8653C10.0761 27.0725 9.93907 26.2018 9.68563 25.3086C9.66176 25.2245 9.63526 25.1408 9.60938 25.0566Z" fill="#703D3D"/>
</svg>
