<svg width="38" height="38" viewBox="0 0 38 38" fill="none" xmlns="http://www.w3.org/2000/svg">
<g filter="url(#filter0_d)">
<circle cx="19" cy="15" r="14.5" fill="#E35B3E" stroke="black"/>
<path d="M28.3335 23.0532L25.6135 20.3332L24.3335 21.6132L27.0535 24.3332C27.0535 24.3332 28.1735 24.1732 28.3335 23.0532Z" fill="black"/>
<path d="M11.0537 9.61336L22.5736 21.1332L25.1335 18.5733L13.6137 7.05339L10.0937 6.0934L11.0537 9.61336Z" fill="black"/>
<rect x="12.4934" y="8.81338" width="0.452544" height="16.2916" rx="0.226272" transform="rotate(-45 12.4934 8.81338)" fill="#2B2B2B"/>
<path d="M26.7333 16.9733L25.1333 18.5733L22.5733 21.1333L20.9733 22.7333C20.9733 23.6932 21.9333 23.6932 21.9333 23.6932C21.9333 23.6932 23.0533 22.2533 23.5333 22.0933C24.0133 21.9333 24.3333 21.6133 24.3333 21.6133L25.6133 20.3333C25.6133 20.3333 25.9333 20.0133 26.0933 19.5333C26.2533 19.0533 27.6933 17.9333 27.6933 17.9333C27.6933 17.9333 27.6933 16.9733 26.7333 16.9733Z" fill="#515151"/>
<path d="M10.9467 24.3333L13.6667 21.6133L12.3867 20.3333L9.66675 23.0533C9.66675 23.0533 9.82675 24.1733 10.9467 24.3333Z" fill="black"/>
<path d="M24.3867 7.05345L12.8669 18.5733L15.4268 21.1333L26.9467 9.61342L27.9067 6.09346L24.3867 7.05345Z" fill="black"/>
<rect x="25.1865" y="8.49342" width="0.452544" height="16.2916" rx="0.226272" transform="rotate(45 25.1865 8.49342)" fill="#2B2B2B"/>
<path d="M17.0267 22.7332L15.4268 21.1333L12.8668 18.5733L11.2668 16.9733C10.3068 16.9733 10.3068 17.9333 10.3068 17.9333C10.3068 17.9333 11.7468 19.0533 11.9068 19.5333C12.0668 20.0133 12.3868 20.3333 12.3868 20.3333L13.6668 21.6133C13.6668 21.6133 13.9868 21.9332 14.4668 22.0932C14.9468 22.2533 16.0667 23.6932 16.0667 23.6932C16.0667 23.6932 17.0267 23.6932 17.0267 22.7332Z" fill="#515151"/>
</g>
<defs>
<filter id="filter0_d" x="0" y="0" width="38" height="38" filterUnits="userSpaceOnUse" color-interpolation-filters="sRGB">
<feFlood flood-opacity="0" result="BackgroundImageFix"/>
<feColorMatrix in="SourceAlpha" type="matrix" values="0 0 0 0 0 0 0 0 0 0 0 0 0 0 0 0 0 0 127 0"/>
<feOffset dy="4"/>
<feGaussianBlur stdDeviation="2"/>
<feColorMatrix type="matrix" values="0 0 0 0 0 0 0 0 0 0 0 0 0 0 0 0 0 0 0.25 0"/>
<feBlend mode="normal" in2="BackgroundImageFix" result="effect1_dropShadow"/>
<feBlend mode="normal" in="SourceGraphic" in2="effect1_dropShadow" result="shape"/>
</filter>
</defs>
</svg>
