<svg width="108" height="120" viewBox="0 0 108 120" fill="none" xmlns="http://www.w3.org/2000/svg">
<path fill-rule="evenodd" clip-rule="evenodd" d="M33.9765 54.1066C35.6694 54.9897 50.0765 58.0566 58.4277 57.8687C70.3237 58.0566 80.2468 53.5143 82.1253 52.7902C82.1253 53.8223 80.4699 60.1841 80.2468 64.0758C80.2468 67.9962 81.5639 84.5266 81.7511 88.3384C82.3772 92.7857 83.6944 98.3155 84.9467 102.071C86.2639 104.626 67.9888 109.161 59.9327 109.592C50.8625 110.154 31.908 106.447 33.0365 103.575C33.0365 100.717 35.6694 93.9416 35.6694 89.467C36.0458 85.1305 35.4815 72.7171 35.4815 67.2729C35.2937 62.3938 34.7229 58.2329 33.9765 54.1066V54.1066Z" fill="#FBD900" stroke="black" stroke-linejoin="round"/>
<path fill-rule="evenodd" clip-rule="evenodd" d="M32.6598 104.324C28.6394 103.367 26.989 111.608 31.3434 112.975C35.9261 115.682 52.722 118.057 59.556 117.495C67.5459 117.301 82.0099 114.292 85.3207 111.471C89.74 108.65 89.2577 102.071 85.3207 102.82C82.9672 105.454 66.1078 109.218 58.9917 109.592C52.3542 110.154 36.8603 107.772 32.6598 104.324V104.324Z" fill="#FBF3BF" stroke="black"/>
<path fill-rule="evenodd" clip-rule="evenodd" d="M80.7001 60.6995C81.5998 58.3884 87.6385 55.6821 89.6034 55.2906C92.9718 54.5341 98.5138 54.2916 101.666 58.3711C107.381 65.801 106.532 78.9738 103.725 83.3016C101.731 86.9745 96.9808 90.7013 93.1949 91.85C89.481 92.9541 84.0469 93.7653 82.8737 94.5217C82.6218 93.5882 81.9237 89.2043 81.8805 87.9929C83.284 88.0851 87.2714 87.3502 90.3015 86.6484C93.1085 86.0014 94.9439 84.2913 97.0167 82.1695C100.615 78.7867 100.148 66.9404 97.4054 64.1355C95.8004 62.5067 92.4752 61.3249 90.2727 61.7438C86.674 62.4859 80.4266 67.0447 80.4266 66.7669C80.0595 65.2706 80.2467 62.334 80.7001 60.6995V60.6995Z" fill="#FBF3BF" stroke="black" stroke-width="1.25" stroke-linejoin="bevel"/>
<path fill-rule="evenodd" clip-rule="evenodd" d="M48.0539 63.8102C49.2458 64.6789 47.0787 76.0135 47.3767 84.0574C47.6746 94.3468 48.4152 100.992 47.0009 101.789C44.7647 102.992 39.8748 101.691 38.3316 100.047C37.4147 98.9618 39.6315 92.6763 39.7797 88.2225C39.4825 81.9521 38.5547 64.2521 39.4479 63.1912C41.0695 61.7129 46.4158 62.3614 48.0539 63.8102V63.8102Z" fill="#FBE600" stroke="black" stroke-width="1.25" stroke-linejoin="round"/>
<path fill-rule="evenodd" clip-rule="evenodd" d="M54.2373 64.2917C53.1728 65.3174 54.1912 78.4167 54.1912 80.5284C54.4115 83.27 53.3988 100.288 54.0638 101.369C55.3939 102.899 61.4168 103.129 63.4213 101.112C64.5045 99.7629 63.0772 84.8858 63.0772 81.1899C63.0772 77.2234 64.0899 65.3181 62.7598 64.2183C61.2973 62.6709 56.6859 61.9295 54.2373 64.2917V64.2917Z" fill="#FBE600" stroke="black"/>
<path fill-rule="evenodd" clip-rule="evenodd" d="M68.4075 63.2524C67.2142 64.1564 69.2568 74.6244 69.2669 82.6726C69.3662 92.9649 68.3715 100.423 69.86 101.177C72.2121 102.316 77.6915 100.067 79.2174 98.376C80.117 97.2647 78.2011 91.0504 77.7188 86.6031C77.0106 80.7271 77.8246 62.7587 76.8623 61.7258C75.1342 60.2978 70.0384 61.7546 68.4075 63.2524V63.2524Z" fill="#FBE600" stroke="black" stroke-width="1.25" stroke-linejoin="round"/>
<path fill-rule="evenodd" clip-rule="evenodd" d="M63.5717 58.5942C59.9809 59.3924 37.2384 56.3335 34.9777 55.1366C35.6427 58.4611 37.2384 87.7209 36.1746 91.0454C36.3078 92.5086 33.3813 101.952 33.5144 103.95C45.8832 54.7371 62.1092 68.7023 63.5717 58.5942V58.5942Z" fill="url(#paint0_linear)"/>
<path fill-rule="evenodd" clip-rule="evenodd" d="M32.2231 104.792C30.0272 104.151 28.4769 109.7 30.1567 111.385C34.2902 113.321 39.7157 109.7 57.6726 110.219C48.5002 109.96 34.9366 108.153 32.2231 104.792V104.792Z" fill="url(#paint1_linear)"/>
<path fill-rule="evenodd" clip-rule="evenodd" d="M81.5711 60.3547C84.8027 57.1252 87.8976 56.35 91.6475 55.7044C97.9741 54.0245 102.372 58.4172 103.79 64.2305C100.558 59.0628 96.4266 58.2876 93.5836 58.1588C90.6111 58.6755 82.2189 63.8426 81.4415 64.7473C80.6642 65.6513 80.9233 61.7755 81.5711 60.3547Z" fill="url(#paint2_linear)"/>
<path fill-rule="evenodd" clip-rule="evenodd" d="M33.2172 91.8601C34.933 92.6943 36.2991 90.7308 35.7111 89.6793C36.3697 89.7419 37.003 89.4454 37.003 88.3874C37.522 87.8691 36.741 87.053 36.741 86.4181C36.0256 85.7034 36.7446 84.8599 36.7446 83.7371C36.7446 82.6186 37.391 81.9356 37.391 80.766C37.391 79.0659 38.8729 79.916 38.0366 77.4069C38.8197 77.101 39.6733 76.3381 38.6829 75.4694C40.2376 75.2966 40.9991 73.7751 39.0701 72.1103C42.0017 72.1103 36.0256 65.8269 41.0077 67.0721C42.607 66.6726 42.2996 65.4779 42.2996 63.9722C44.3667 66.8137 47.263 65.8586 47.7251 63.9722C48.696 67.1383 55.3472 65.8341 55.3472 61.9051C55.476 66.7633 60.4703 64.3551 61.4189 64.7473C60.2558 66.0904 62.559 71.2819 64.5189 71.3352C59.978 74.741 60.7956 80.6926 66.3276 81.7988C69.1303 81.7988 70.2034 79.4395 70.2034 76.115C71.1074 78.0187 75.2215 79.1955 75.2417 75.9861C77.308 79.9764 79.9157 74.9274 78.3416 74.4358C81.9598 75.8069 80.5635 69.3407 79.2463 67.8473C81.312 67.1894 80.657 62.4341 79.3759 60.8715C81.2616 62.7896 84.227 60.2734 83.8959 56.6084C84.7812 59.1038 90.4815 56.3436 86.6093 50.5367C86.6093 49.4247 83.3777 49.2778 82.6075 50.1495C82.5931 46.2297 79.6566 43.1737 77.5664 43.9488C78.8649 42.0106 71.0542 40.4228 69.4283 43.5609C70.3999 39.4576 59.4879 36.8434 59.223 39.169C57.9642 37.3603 50.7509 37.3272 48.6298 43.6905C48.6298 40.1918 36.8915 38.6522 37.1326 43.9488C34.6207 42.197 30.4908 44.2072 30.8024 46.2736C26.9266 44.3282 25.1582 53.1551 28.3481 53.6373C26.5394 55.2654 26.4105 61.7784 28.7353 61.6467C27.3145 63.1797 28.0897 67.7184 29.64 67.8473C28.4309 69.5178 29.8164 77.6891 34.8071 76.3734C34.8071 78.19 35.3174 79.7519 34.6783 81.67C34.6783 82.782 34.0319 83.7234 34.0319 84.8995C34.2997 85.435 33.125 86.8601 34.4199 87.7417C31.3847 89.0078 32.0425 90.9547 33.2172 91.8601V91.8601Z" fill="white" stroke="black" stroke-linejoin="round"/>
<path d="M33.1516 59.64C32.0655 58.4531 34.0311 54.5737 36.2055 54.7731C36.7014 52.9924 38.0667 52.6909 39.5796 53.199C38.8253 51.7271 40.6614 50.3258 42.2787 51.9884C43.3705 50.1012 45.6449 48.6452 46.8534 49.6622C46.7584 47.2345 51.2172 44.7729 52.8496 46.9012C52.8496 47.3374 52.5883 48.25 52.8496 48.25" stroke="black" stroke-linejoin="round"/>
<path d="M59.8217 52.2993C59.7476 48.9014 69.9053 46.116 67.9188 52.074C68.8329 51.617 72.8678 51.1391 72.1257 53.7388C75.0932 53.4041 79.6061 54.5341 76.9207 58.5532C78.6416 59.8523 77.8779 63.3719 76.6911 62.1958" stroke="black" stroke-linejoin="round"/>
<path d="M19.6289 33.1191H31.5234V38.2461H19.6289V51.7227H14.1797V38.2461H2.28516V33.1191H14.1797V20.668H19.6289V33.1191Z" fill="white"/>
<defs>
<linearGradient id="paint0_linear" x1="39.8981" y1="60.857" x2="66.9613" y2="73.9253" gradientUnits="userSpaceOnUse">
<stop stop-color="white" stop-opacity="0.5"/>
<stop offset="1" stop-color="white" stop-opacity="0.1"/>
</linearGradient>
<linearGradient id="paint1_linear" x1="31.2878" y1="105.743" x2="32.3902" y2="118.962" gradientUnits="userSpaceOnUse">
<stop stop-color="white" stop-opacity="0.5"/>
<stop offset="1" stop-color="white" stop-opacity="0.1"/>
</linearGradient>
<linearGradient id="paint2_linear" x1="84.5187" y1="56.0826" x2="89.003" y2="71.8024" gradientUnits="userSpaceOnUse">
<stop stop-color="white" stop-opacity="0.5"/>
<stop offset="1" stop-color="white" stop-opacity="0.1"/>
</linearGradient>
</defs>
</svg>
