<?xml version="1.0" encoding="utf-8"?>
<!-- Designed by Vexels.com - 2016 All Rights Reserved - https://vexels.com/terms-and-conditions/  -->

<svg version="1.0" id="Capa_1" xmlns="http://www.w3.org/2000/svg" xmlns:xlink="http://www.w3.org/1999/xlink" x="0px" y="0px"
	 width="1200px" height="1199.999px" viewBox="0 0 1200 1199.999" enable-background="new 0 0 1200 1199.999" xml:space="preserve">
<g>
	<g>
		<g>
			<g>
				<path fill="#ffd700" d="M320.512,517.908c57.21,0.634,114.427,1.718,171.643,1.405c46.501-0.254,93.066-1.55,139.353-6.257
					c42.609-4.332,84.897-11.689,126.133-23.344c42.204-11.929,83.736-28.143,123.561-46.463
					c37.82-17.398,78.068-38.759,103.612-72.659c10.822-14.362,16.251-31.76,13.742-49.651
					c-2.799-19.969-16.903-36.766-31.828-49.328c-21.201-17.845-46.239-30.538-71.609-41.32
					c-24.605-10.457-49.926-18.917-75.8-25.635c-52.831-13.718-107.484-20.355-161.916-23.191
					c-53.112-2.767-106.39-1.526-159.439,1.927c-37.472,2.439-74.575,6.277-111.602,12.517
					c-35.623,6.004-71.009,13.719-105.662,23.968c-36.013,10.651-71.837,24.131-104.22,43.344
					c-27.937,16.575-54.954,38.933-69.198,68.794c-7.106,14.895-10.855,30.98-10.857,47.505c-0.002,18.208,6.5,36.761,16.443,51.886
					c21.121,32.129,57.503,49.938,93.103,61.17c39.675,12.518,81.652,17.578,122.98,20.888c16.611,1.33,33.252,2.244,49.896,3.041
					c7.041,0.337,12.922-6.133,12.922-12.922c0-7.299-5.889-12.586-12.922-12.922c-19.054-0.912-38.1-2.005-57.108-3.64
					c-10.21-0.878-20.405-1.936-30.576-3.187c-1.234-0.152-2.467-0.31-3.7-0.468c-0.224-0.029-4.295-0.573-1.5-0.194
					c-2.469-0.335-4.936-0.691-7.401-1.055c-5.337-0.788-10.661-1.662-15.974-2.6c-19.875-3.509-39.59-8.197-58.67-14.815
					c-4.352-1.51-8.656-3.157-12.92-4.901c-3.492-1.428,2.363,1.027-1.081-0.462c-1.03-0.446-2.054-0.907-3.077-1.368
					c-2.36-1.064-4.691-2.191-7.008-3.345c-7.962-3.966-15.609-8.56-22.803-13.792c-0.389-0.283-3.156-2.396-0.673-0.469
					c-0.808-0.627-1.602-1.274-2.395-1.921c-1.572-1.282-3.095-2.623-4.599-3.983c-3.209-2.902-6.211-6.027-9.047-9.294
					c-0.648-0.747-1.274-1.512-1.9-2.278c-2.12-2.595,1.613,2.174-0.398-0.501c-1.183-1.575-2.292-3.203-3.374-4.849
					c-2.355-3.583-4.396-7.363-6.217-11.241c-0.235-0.501-1.556-3.615-0.295-0.58c-0.387-0.93-0.742-1.874-1.097-2.816
					c-0.719-1.909-1.34-3.853-1.927-5.805c-1.318-4.377-2.231-8.868-2.907-13.385c0.515,3.444,0.097-2.304,0.079-3.264
					c-0.034-1.838,0.009-3.676,0.077-5.513c0.068-1.805,0.211-3.607,0.381-5.405c0.084-0.889,0.193-1.776,0.302-2.662
					c-0.487,3.955,0.068-0.145,0.204-0.942c0.592-3.447,1.427-6.849,2.403-10.206c0.484-1.666,1.038-3.31,1.613-4.946
					c0.287-0.817,0.597-1.626,0.907-2.434c1.323-3.456-0.557,1.178,0.353-0.914c2.91-6.692,6.646-13.004,10.853-18.956
					c0.514-0.728,1.045-1.444,1.575-2.16c1.851-2.499-1.764,2.226,0.166-0.227c1.119-1.422,2.282-2.809,3.459-4.183
					c2.599-3.036,5.362-5.93,8.203-8.739c2.695-2.664,5.51-5.206,8.38-7.68c1.464-1.262,2.959-2.488,4.462-3.703
					c0.759-0.614,1.528-1.216,2.296-1.818c-2.674,2.096,0.806-0.588,1.304-0.96c13.911-10.37,29.105-18.962,44.691-26.532
					c3.943-1.915,7.928-3.742,11.933-5.522c2.025-0.9,4.061-1.776,6.101-2.644c-2.752,1.172,0.676-0.273,1.025-0.418
					c1.378-0.571,2.761-1.129,4.145-1.687c8.745-3.521,17.605-6.753,26.526-9.797c35.116-11.983,71.326-20.699,107.748-27.649
					c15.771-3.009,31.614-5.635,47.501-7.953c3.362-0.49,6.726-0.962,10.092-1.423c0.817-0.112,3.76-0.506-0.207,0.026
					c0.791-0.106,1.583-0.21,2.374-0.315c1.792-0.236,3.584-0.466,5.377-0.694c10.416-1.323,20.908-2.086,31.371-2.942
					c52.185-4.27,104.576-6.464,156.936-5.332c53.961,1.167,107.093,5.917,159.628,16.914
					c51.436,10.767,102.636,26.904,147.06,54.796c10.44,6.554,19.269,13.239,27.832,22.268c1.677,1.768,3.255,3.628,4.787,5.522
					c-1.72-2.126,0.56,0.804,0.733,1.046c0.641,0.893,1.242,1.814,1.841,2.735c1.141,1.753,2.158,3.584,3.121,5.44
					c0.46,0.886,0.873,1.796,1.286,2.704c-1.43-3.151,0.22,0.749,0.445,1.396c0.606,1.745,1.063,3.537,1.463,5.339
					c0.195,0.877,0.338,1.765,0.48,2.652c-0.593-3.697-0.137-0.7-0.075,0.082c0.139,1.741,0.121,3.49,0.052,5.233
					c-0.034,0.868-0.12,1.733-0.204,2.597c0.391-3.979-0.043,0.011-0.209,0.863c-0.336,1.728-0.813,3.426-1.331,5.107
					c-0.288,0.935-2.422,6.189-0.941,2.798c-1.64,3.756-3.736,7.302-6.008,10.705c-0.525,0.787-4.041,5.45-2.129,3.022
					c-1.285,1.632-2.646,3.204-4.026,4.757c-3.153,3.55-6.567,6.865-10.076,10.059c-1.703,1.549-3.454,3.044-5.218,4.523
					c-0.901,0.755-1.816,1.493-2.732,2.232c-0.155,0.125-3.242,2.535-1.146,0.924c-4.244,3.263-8.633,6.336-13.08,9.314
					c-18.387,12.313-38.171,22.51-58.23,31.79c-19.366,8.959-37.547,15.948-58.467,24.081
					c-20.104,7.815-40.589,14.637-61.355,20.463c-20.133,5.648-40.553,10.242-61.127,13.961c-10.34,1.869-20.727,3.479-31.137,4.906
					c2.721-0.373-1.436,0.187-1.608,0.209c-1.265,0.165-2.53,0.324-3.795,0.484c-2.54,0.32-5.083,0.622-7.626,0.918
					c-5.56,0.648-11.128,1.229-16.699,1.771c-45.594,4.441-91.463,5.531-137.247,5.758c-56.195,0.279-112.393-0.798-168.583-1.421
					C303.839,491.878,303.857,517.724,320.512,517.908L320.512,517.908z"/>
			</g>
		</g>
		<g>
			<g>
				<path fill="#ffd700" d="M101.163,398.826c3.805,46.348,7.999,92.679,13.461,138.864c0.827,6.993,5.252,12.922,12.922,12.922
					c6.417,0,13.752-5.911,12.922-12.922c-5.462-46.185-9.656-92.516-13.461-138.864c-0.576-7.018-5.442-12.922-12.922-12.922
					C107.478,385.903,100.586,391.795,101.163,398.826L101.163,398.826z"/>
			</g>
		</g>
		<g>
			<g>
				<path fill="#ffd700" d="M121.024,548.848c46.609,21.891,96.616,35.686,147.075,45.317c55.451,10.583,111.967,16.124,168.389,17.308
					c25.572,0.537,51.035-0.618,76.585-1.197c19.682-0.446,39.353-1.322,59.001-2.552c45.875-2.872,91.654-7.844,137.016-15.286
					c45.626-7.484,91.007-17.704,134.711-32.933c39.657-13.819,78.307-31.906,110.955-58.662
					c13.653-11.189,26.192-24.255,34.414-40.01c8.536-16.357,11.514-34.645,11.273-52.943c-0.22-16.651-2.932-33.173-4.118-49.763
					c-1.352-18.906-0.549-34.897,5.274-52.428c2.221-6.686-2.503-14.102-9.026-15.896c-7.059-1.942-13.678,2.347-15.896,9.026
					c-7.881,23.725-7.457,48.45-4.993,73.012c1.116,11.128,2.447,22.237,2.849,33.421c0.43,11.973-0.107,19.701-2.991,30.297
					c-2.826,10.382-8.157,19.86-15.698,28.609c-6.752,7.834-14.718,14.755-22.804,21.175c-2.897,2.3,2.045-1.544-0.912,0.709
					c-0.894,0.681-1.797,1.349-2.701,2.016c-1.825,1.349-3.679,2.658-5.541,3.955c-4.119,2.869-8.343,5.587-12.617,8.219
					c-8.558,5.271-17.416,10.044-26.423,14.499c-4.485,2.218-9.024,4.325-13.59,6.37c-5.901,2.644-7.4,3.25-13.426,5.664
					c-10.211,4.091-20.577,7.791-31.021,11.242c-21.8,7.203-44.021,13.103-66.402,18.196c-22.938,5.22-46.092,9.475-69.336,13.081
					c-22.348,3.468-43.148,6.017-66.728,8.362c-21.534,2.141-43.118,3.763-64.725,4.955c-19.414,1.07-38.86,1.185-58.27,2.148
					c-55.158,2.736-110.623,0.366-165.448-6.108c-68.106-8.042-140.7-23.41-201.833-52.122c-6.376-2.995-13.886-1.841-17.68,4.636
					C113.072,536.829,114.649,545.853,121.024,548.848L121.024,548.848z"/>
			</g>
		</g>
		<g>
			<g>
				<path fill="#ffd700" d="M151.037,464.132c13.179,17.894,19.647,40.781,16.221,62.894c-1.043,6.729,9.239,9.62,10.29,2.837
					c3.858-24.902-2.317-50.777-17.297-71.117C156.217,453.269,146.95,458.582,151.037,464.132L151.037,464.132z"/>
			</g>
		</g>
		<g>
			<g>
				<path fill="#ffd700" d="M185.527,480.25c1.388,23.002,11.181,44.466,12.575,67.421c0.415,6.836,11.088,6.876,10.671,0
					c-1.397-23-11.19-44.464-12.575-67.421C195.786,473.414,185.113,473.374,185.527,480.25L185.527,480.25z"/>
			</g>
		</g>
		<g>
			<g>
				<path fill="#ffd700" d="M166.284,530.821c0.979,6.329,0.95,12.761,0.952,19.149c0.002,6.881,10.673,6.881,10.671,0
					c-0.002-7.386-0.203-14.675-1.334-21.986C175.524,521.2,165.243,524.091,166.284,530.821L166.284,530.821z"/>
			</g>
		</g>
		<g>
			<g>
				<path fill="#ffd700" d="M139.809,463.1c-1.061,26.786,6.598,53.332,12.767,79.137c1.599,6.691,11.889,3.853,10.29-2.837
					c-5.956-24.916-13.411-50.438-12.386-76.301C150.753,456.216,140.081,456.243,139.809,463.1L139.809,463.1z"/>
			</g>
		</g>
		<g>
			<g>
				<path fill="#ffd700" d="M210.67,490.534c2.457,24.058,6.697,48.027,13.908,71.138c2.043,6.546,12.345,3.75,10.29-2.837
					c-6.925-22.193-11.167-45.193-13.527-68.301C220.649,483.757,209.971,483.69,210.67,490.534L210.67,490.534z"/>
			</g>
		</g>
		<g>
			<g>
				<path fill="#ffd700" d="M237.376,501.158c8.218,9.181,9.411,23.183,10.948,34.861c1.721,13.081,3.116,26.761,9.935,38.361
					c3.484,5.926,12.709,0.56,9.214-5.386c-13.557-23.063-3.837-54.473-22.551-75.381
					C240.323,488.475,232.802,496.048,237.376,501.158L237.376,501.158z"/>
			</g>
		</g>
		<g>
			<g>
				<path fill="#ffd700" d="M273.53,501.969c-1.216,25.423-0.494,52.644,8.192,76.838c2.307,6.426,12.621,3.656,10.29-2.837
					c-8.396-23.386-8.986-49.432-7.81-74.002C284.53,495.087,273.858,495.119,273.53,501.969L273.53,501.969z"/>
			</g>
		</g>
		<g>
			<g>
				<path fill="#ffd700" d="M300.007,499.937c8.164,26.107,14.592,54.54,13.525,82.034c-0.267,6.884,10.405,6.858,10.671,0
					c1.101-28.372-5.481-57.926-13.907-84.87C308.25,490.555,297.947,493.351,300.007,499.937L300.007,499.937z"/>
			</g>
		</g>
		<g>
			<g>
				<path fill="#ffd700" d="M335.251,504.251c0.09,23.788,3.713,47.194,10.474,69.989c1.952,6.581,12.251,3.777,10.29-2.837
					c-6.505-21.933-10.007-44.261-10.093-67.152C345.896,497.372,335.225,497.369,335.251,504.251L335.251,504.251z"/>
			</g>
		</g>
		<g>
			<g>
				<path fill="#ffd700" d="M367.243,509.952c-0.033,14.504-0.786,28.982-0.077,43.484c0.663,13.568,1.911,29.314,10.782,40.292
					c4.327,5.354,11.828-2.246,7.545-7.545c-7.306-9.041-7.308-24.46-7.779-35.415c-0.585-13.607,0.168-27.208,0.199-40.815
					C377.93,503.07,367.259,503.071,367.243,509.952L367.243,509.952z"/>
			</g>
		</g>
		<g>
			<g>
				<path fill="#ffd700" d="M404.548,518.363c8.167,11.597,6.785,26.331,5.952,39.77c-0.844,13.626-1.683,27.573,4.331,40.232
					c2.952,6.213,12.15,0.795,9.214-5.386c-5.858-12.329-3.246-27.5-2.536-40.616c0.731-13.499,0.324-27.925-7.747-39.386
					C409.833,507.399,400.575,512.722,404.548,518.363L404.548,518.363z"/>
			</g>
		</g>
		<g>
			<g>
				<path fill="#ffd700" d="M436.241,520.592c3.221,3.998,4.342,9.59,5.275,14.493c1.356,7.128,1.598,14.486,1.823,21.72
					c0.418,13.408-0.28,26.988,1.814,40.285c1.068,6.782,11.35,3.893,10.29-2.837c-2.212-14.044-1.003-28.675-1.636-42.84
					c-0.58-12.974-1.545-27.848-10.02-38.366C439.468,507.687,431.967,515.288,436.241,520.592L436.241,520.592z"/>
			</g>
		</g>
		<g>
			<g>
				<path fill="#ffd700" d="M464.579,517.088c5.913,28.788,7.765,58.392,7.81,87.734c0.011,6.881,10.682,6.882,10.671,0
					c-0.047-30.29-2.088-60.856-8.192-90.571C473.485,507.513,463.2,510.372,464.579,517.088L464.579,517.088z"/>
			</g>
		</g>
		<g>
			<g>
				<path fill="#ffd700" d="M499.823,520.252c2.375,24.621,5.883,49.116,10.474,73.421c1.276,6.757,11.56,3.887,10.29-2.837
					c-4.415-23.374-7.809-46.906-10.093-70.584C509.839,513.466,499.162,513.402,499.823,520.252L499.823,520.252z"/>
			</g>
		</g>
		<g>
			<g>
				<path fill="#ffd700" d="M530.682,509.952c0.212,29.026,11.819,58.814,5.907,87.752c-1.372,6.717,8.913,9.576,10.29,2.837
					c6.167-30.189-5.306-60.387-5.526-90.589C541.303,503.073,530.632,503.068,530.682,509.952L530.682,509.952z"/>
			</g>
		</g>
		<g>
			<g>
				<path fill="#ffd700" d="M574.118,506.536c-0.134,25.851-8.154,56.548,5.296,80.396c3.38,5.992,12.599,0.616,9.214-5.386
					c-6.129-10.868-6.096-24.257-5.807-36.382c0.307-12.892,1.901-25.728,1.968-38.628
					C584.825,499.653,574.154,499.656,574.118,506.536L574.118,506.536z"/>
			</g>
		</g>
		<g>
			<g>
				<path fill="#ffd700" d="M598.84,517.212c9.815,21.642,3.236,46.898,8.611,69.595c1.585,6.695,11.874,3.855,10.29-2.837
					c-5.67-23.946,0.773-49.078-9.687-72.144C605.215,505.567,596.021,510.996,598.84,517.212L598.84,517.212z"/>
			</g>
		</g>
		<g>
			<g>
				<path fill="#ffd700" d="M628.971,504.251c-1.152,26.001,0.842,52.675,7.057,77.988c1.64,6.681,11.93,3.846,10.29-2.837
					c-5.997-24.426-7.787-50.065-6.676-75.151C639.946,497.369,629.274,497.398,628.971,504.251L628.971,504.251z"/>
			</g>
		</g>
		<g>
			<g>
				<path fill="#ffd700" d="M665.547,496.252c0.184,27.332,8.216,53.526,12.765,80.271c1.152,6.773,11.434,3.892,10.29-2.837
					c-4.389-25.805-12.207-51.067-12.384-77.434C676.171,489.373,665.5,489.369,665.547,496.252L665.547,496.252z"/>
			</g>
		</g>
		<g>
			<g>
				<path fill="#ffd700" d="M700.973,491.685c0.156,27.177,6.668,53.915,5.708,81.137c-0.243,6.885,10.429,6.861,10.671,0
					c0.96-27.221-5.553-53.96-5.708-81.137C711.604,484.806,700.934,484.802,700.973,491.685L700.973,491.685z"/>
			</g>
		</g>
		<g>
			<g>
				<path fill="#ffd700" d="M727.986,495.511c12.383,21.23,1.849,48.072,9.754,70.728c2.252,6.454,12.563,3.678,10.29-2.837
					c-8.3-23.786,2.423-50.557-10.83-73.277C733.735,484.186,724.511,489.555,727.986,495.511L727.986,495.511z"/>
			</g>
		</g>
		<g>
			<g>
				<path fill="#ffd700" d="M762.882,474.265c-4.808,29.121,0.689,58.91,6.858,87.407c1.456,6.724,11.742,3.872,10.29-2.837
					c-5.729-26.466-11.33-54.647-6.858-81.734C774.283,470.372,764.001,467.488,762.882,474.265L762.882,474.265z"/>
			</g>
		</g>
		<g>
			<g>
				<path fill="#ffd700" d="M803.835,464.25c-0.056,15.987-1.164,31.93-0.794,47.931c0.166,7.193-0.604,40.092,14.406,34.918
					c6.465-2.228,3.687-12.538-2.837-10.29c-0.894,0.308,1.168,0.138,1.351,0.165c-0.777-0.113,0.858,0.469,1.062,0.647
					c0.446,0.389-0.5-0.879-0.324-0.456c-1.064-2.562-1.494-5.414-1.897-8.14c-1.12-7.571-1.121-15.393-1.186-23.028
					c-0.119-13.929,0.842-27.827,0.89-41.747C814.53,457.367,803.859,457.37,803.835,464.25L803.835,464.25z"/>
			</g>
		</g>
		<g>
			<g>
				<path fill="#ffd700" d="M830.119,457.384c2.358,29.437-6.812,61.49,5.304,89.563c2.72,6.303,11.911,0.862,9.214-5.386
					c-5.362-12.425-4.897-27.012-4.533-40.253c0.402-14.625,1.858-29.301,0.686-43.924
					C840.244,450.573,829.569,450.52,830.119,457.384L830.119,457.384z"/>
			</g>
		</g>
		<g>
			<g>
				<path fill="#ffd700" d="M865.913,457.423c-1.612-1.232-0.506-0.206,0.02,1.702c0.649,2.353,0.994,4.799,1.28,7.218
					c0.851,7.19,1.139,14.451,1.446,21.679c0.568,13.376,0.108,27.323,2.801,40.499c1.377,6.74,11.662,3.88,10.29-2.837
					c-2.798-13.693-1.975-28.436-2.629-42.343c-0.345-7.336-0.831-14.662-1.889-21.933c-0.715-4.916-1.805-10.044-5.934-13.199
					C865.829,444.03,860.524,453.305,865.913,457.423L865.913,457.423z"/>
			</g>
		</g>
		<g>
			<g>
				<path fill="#ffd700" d="M890.895,429.084c4.641,11.416,3.638,25.273,3.229,37.312c-0.508,14.941-2.009,29.831-3.42,44.707
					c-0.65,6.851,10.027,6.789,10.671,0c1.411-14.882,2.849-29.763,3.42-44.707c0.492-12.874,1.348-27.953-3.61-40.149
					C898.629,419.96,888.302,422.706,890.895,429.084L890.895,429.084z"/>
			</g>
		</g>
		<g>
			<g>
				<path fill="#ffd700" d="M913.556,411.682c1.066,33.148-1.09,66.275-1.135,99.421c-0.009,6.882,10.662,6.881,10.671,0
					c0.045-33.146,2.201-66.273,1.135-99.421C924.006,404.818,913.335,404.797,913.556,411.682L913.556,411.682z"/>
			</g>
		</g>
		<g>
			<g>
				<path fill="#ffd700" d="M940.031,399.963c-4.805,28.409-3.649,57.317-3.624,86.004c0.006,6.881,10.677,6.882,10.671,0
					c-0.024-27.669-1.392-55.764,3.243-83.167C951.459,396.071,941.177,393.189,940.031,399.963L940.031,399.963z"/>
			</g>
		</g>
		<g>
			<g>
				<path fill="#ffd700" d="M956.974,389.965c0.03,23.638,1.115,47.25,2.301,70.853c0.344,6.847,11.016,6.881,10.671,0
					c-1.185-23.603-2.27-47.215-2.301-70.853C967.636,383.084,956.965,383.083,956.974,389.965L956.974,389.965z"/>
			</g>
		</g>
	</g>
	<g>
		<g>
			<g>
				<path fill="#ffd700" d="M201.35,588.853c-3.963,31.253,4.622,62.651,28.236,84.322c22.853,20.973,53.997,30.909,83.948,36.298
					c60.537,10.892,122.731,6.246,183.544,0.402c0.799-0.077,1.598-0.153,2.396-0.23c7.009-0.672,12.922-5.37,12.922-12.922
					c0-6.535-5.898-13.596-12.922-12.922c-26.795,2.568-53.599,4.924-80.511,5.844c-16.514,0.565-33.05,0.593-49.559-0.104
					c-8.371-0.354-16.732-0.933-25.071-1.738c-3.962-0.382-7.916-0.838-11.864-1.343c-3.368-0.431,2.877,0.401-0.478-0.067
					c-0.974-0.136-1.947-0.28-2.919-0.424c-2.255-0.334-4.505-0.702-6.753-1.084c-14.679-2.495-29.218-6.104-43.133-11.441
					c-0.898-0.344-6.18-2.555-2.592-1.018c-1.586-0.679-3.154-1.4-4.715-2.135c-3.054-1.438-6.04-3.016-8.972-4.688
					c-2.85-1.626-5.613-3.399-8.308-5.271c-0.802-0.557-5.112-3.849-1.899-1.335c-1.251-0.979-2.464-2.004-3.662-3.046
					c-2.367-2.058-4.595-4.272-6.718-6.579c-1.053-1.145-2.056-2.335-3.039-3.54c-1.778-2.178,1.806,2.409,0.118,0.16
					c-0.466-0.621-0.913-1.257-1.36-1.892c-1.798-2.557-3.391-5.252-4.849-8.014c-0.739-1.4-1.409-2.836-2.055-4.281
					c1.7,3.801-0.426-1.19-0.769-2.144c-1.122-3.125-1.986-6.337-2.701-9.577c-0.372-1.683-0.664-3.383-0.931-5.085
					c-0.481-3.067,0.364,3.048,0.002-0.067c-0.104-0.894-0.181-1.79-0.258-2.686c-0.673-7.79-0.266-15.647,0.716-23.391
					c0.889-7.006-6.551-12.922-12.922-12.922C206.558,575.931,202.236,581.867,201.35,588.853L201.35,588.853z"/>
			</g>
		</g>
		<g>
			<g>
				<path fill="#ffd700" d="M441.883,719.13c118.078-15.153,237.94-24.881,352.34-59.778c80.052-24.42,157.56-62.884,223.506-114.762
					c25.908-20.381,51.864-44.768,64.099-76.081c5.072-12.981,6.152-27.862,2.023-41.246c-5.071-16.436-17.055-28.837-30.579-38.826
					c-14.018-10.353-30.475-17.36-46.726-23.357c-6.615-2.441-14.148,2.67-15.896,9.026c-1.988,7.229,2.424,13.46,9.026,15.896
					c10.126,3.737,19.174,7.668,29.253,13.435c3.897,2.23,7.662,4.685,11.299,7.316c0.395,0.286,3.165,2.446,0.67,0.483
					c0.783,0.616,1.547,1.257,2.31,1.897c1.695,1.423,3.312,2.937,4.888,4.491c1.27,1.253,2.471,2.573,3.643,3.917
					c0.563,0.646,1.1,1.313,1.637,1.981c-2.257-2.808-0.459-0.556-0.026,0.047c1.976,2.758,3.641,5.728,5.044,8.814
					c-1.777-3.908,0.207,0.736,0.538,1.75c0.449,1.375,0.797,2.78,1.111,4.191c0.155,0.699,0.277,1.405,0.398,2.11
					c0.459,2.664-0.378-3.292-0.089-0.608c0.178,1.654,0.226,3.32,0.225,4.983c-0.001,1.437-0.099,2.872-0.225,4.302
					c-0.08,0.905-0.494,3.573,0.104-0.553c-0.105,0.726-0.24,1.447-0.374,2.168c-0.599,3.219-1.536,6.368-2.628,9.451
					c-0.261,0.736-0.545,1.464-0.829,2.191c-1.038,2.657,1.228-2.798,0.073-0.162c-0.652,1.488-1.369,2.946-2.103,4.394
					c-1.664,3.282-3.563,6.443-5.561,9.532c-0.964,1.49-1.975,2.948-3,4.396c-0.536,0.757-3.988,5.323-1.801,2.504
					c-2.524,3.255-5.201,6.39-7.946,9.46c-5.632,6.299-11.691,12.211-17.937,17.896c-6.633,6.037-13.554,11.754-20.616,17.28
					c-2.884,2.257,2.047-1.564-0.867,0.669c-0.876,0.671-1.757,1.336-2.638,2.002c-1.768,1.335-3.55,2.651-5.336,3.961
					c-3.885,2.85-7.819,5.631-11.78,8.374c-14.858,10.29-30.216,19.854-45.846,28.922c-35.722,20.725-72.983,38.382-111.903,52.267
					c-111.694,39.85-230.734,51.395-347.69,65.696c-9.932,1.214-19.862,2.454-29.787,3.728c-6.985,0.896-12.922,5.2-12.922,12.922
					C428.961,712.572,434.878,720.029,441.883,719.13L441.883,719.13z"/>
			</g>
		</g>
		<g>
			<g>
				<path fill="#ffd700" d="M210.292,633.073c10.189,45.37,20.749,90.673,32.552,135.654c4.227,16.108,29.156,9.268,24.922-6.871
					c-11.803-44.981-22.363-90.284-32.552-135.654c-1.544-6.873-9.354-10.825-15.896-9.026
					C212.288,619.111,208.749,626.207,210.292,633.073L210.292,633.073z"/>
			</g>
		</g>
		<g>
			<g>
				<path fill="#ffd700" d="M251.869,777.753c49.997,15.481,102.764,21.826,154.895,24.251c56.737,2.64,113.782-0.089,170.116-7.178
					c25.569-3.218,50.857-7.867,76.265-12.083c19.645-3.26,39.219-6.95,58.716-10.997c44.526-9.243,88.672-20.487,132.015-34.268
					c44.539-14.162,88.49-31.133,129.903-52.895c35.98-18.907,71.206-42.243,98.147-73.03c12.158-13.895,22.4-29.13,27.791-46.94
					c5.176-17.101,4.328-34.992,1.441-52.389c-2.635-15.885-7.385-31.342-10.722-47.08c-1.9-8.961-2.722-14.213-3.285-22.809
					c-0.587-8.966-0.099-18.349,1.316-26.036c1.273-6.921-1.8-13.909-9.026-15.896c-6.34-1.744-14.62,2.092-15.896,9.026
					c-4.648,25.261-1.251,49.86,4.704,74.588c2.604,10.815,5.481,21.564,7.531,32.505c0.241,1.284,0.455,2.572,0.669,3.861
					c0.019,0.116,0.636,4.35,0.287,1.712c0.34,2.567,0.572,5.147,0.756,7.729c0.402,5.618,0.279,11.258-0.283,16.86
					c-0.853,8.494-5.395,20.57-10.877,29.673c-5.151,8.553-11.762,16.181-18.59,23.426c-6.508,6.905-13.512,13.334-20.772,19.438
					c-1.802,1.515-3.633,2.997-5.472,4.468c-0.928,0.743-1.865,1.474-2.802,2.206c2.105-1.644-1.031,0.773-1.188,0.891
					c-4.211,3.186-8.516,6.246-12.869,9.234c-36.499,25.056-77.139,43.716-116.999,58.915
					c-43.598,16.624-88.498,29.783-133.802,40.863c-39.753,9.723-79.94,17.742-120.368,24.094
					c-26.958,4.236-53.081,8.984-80.089,11.789c-28.398,2.949-56.924,4.659-85.468,5.237
					c-70.586,1.429-141.685-3.185-209.176-24.083C242.775,747.888,236,772.839,251.869,777.753L251.869,777.753z"/>
			</g>
		</g>
		<g>
			<g>
				<path fill="#ffd700" d="M268.802,689.668c15.628,15.994,24.663,37.865,24.314,60.261c-0.107,6.885,10.564,6.874,10.671,0
					c0.391-25.16-9.897-49.854-27.44-67.807C271.532,677.194,263.992,684.745,268.802,689.668L268.802,689.668z"/>
			</g>
		</g>
		<g>
			<g>
				<path fill="#ffd700" d="M304.917,701.062c4.544,22.574,17.237,42.469,21.789,65.041c1.36,6.743,11.645,3.881,10.29-2.837
					c-4.552-22.572-17.244-42.467-21.789-65.041C313.849,691.482,303.565,694.344,304.917,701.062L304.917,701.062z"/>
			</g>
		</g>
		<g>
			<g>
				<path fill="#ffd700" d="M292.476,752.434c1.994,6.61,3.03,13.394,3.985,20.218c0.404,2.886,4.037,4.421,6.563,3.726
					c3.073-0.845,4.129-3.685,3.727-6.563c-0.955-6.824-1.991-13.607-3.985-20.218C300.784,743.027,290.484,745.828,292.476,752.434
					L292.476,752.434z"/>
			</g>
		</g>
		<g>
			<g>
				<path fill="#ffd700" d="M257.075,688.994c2.672,26.78,13.688,51.85,23.401,76.662c2.479,6.333,12.801,3.579,10.29-2.837
					c-9.299-23.754-20.46-48.173-23.019-73.825C267.07,682.213,256.392,682.148,257.075,688.994L257.075,688.994z"/>
			</g>
		</g>
		<g>
			<g>
				<path fill="#ffd700" d="M331.249,707.77c5.758,23.479,13.436,46.542,23.764,68.422c2.936,6.22,12.134,0.8,9.214-5.386
					c-9.929-21.034-17.154-43.308-22.688-65.873C339.9,698.252,329.609,701.087,331.249,707.77L331.249,707.77z"/>
			</g>
		</g>
		<g>
			<g>
				<path fill="#ffd700" d="M358.467,713.429c9.757,8.229,12.89,21.619,16.154,33.403c3.611,13.038,7.075,26.396,15.631,37.179
					c4.276,5.389,11.775-2.216,7.545-7.545c-16.274-20.51-10.755-52.844-31.785-70.581
					C360.788,701.477,353.199,708.987,358.467,713.429L358.467,713.429z"/>
			</g>
		</g>
		<g>
			<g>
				<path fill="#ffd700" d="M394.893,708.955c2.36,25.908,6.88,53.027,19.093,76.291c3.2,6.094,12.409,0.7,9.214-5.386
					c-11.286-21.498-15.456-46.965-17.636-70.906C404.945,702.16,394.268,702.1,394.893,708.955L394.893,708.955z"/>
			</g>
		</g>
		<g>
			<g>
				<path fill="#ffd700" d="M421.171,704.621c11.458,24.196,21.718,51.245,24.406,78.045c0.68,6.78,11.357,6.846,10.671,0
					c-2.89-28.821-13.535-57.397-25.863-83.431C427.441,693.019,418.243,698.438,421.171,704.621L421.171,704.621z"/>
			</g>
		</g>
		<g>
			<g>
				<path fill="#ffd700" d="M456.522,704.114c3.387,23.588,10.355,46.099,20.212,67.768c2.846,6.256,12.041,0.828,9.214-5.386
					c-9.461-20.797-15.889-42.601-19.137-65.219C465.837,694.487,455.556,697.386,456.522,704.114L456.522,704.114z"/>
			</g>
		</g>
		<g>
			<g>
				<path fill="#ffd700" d="M488.996,705.327c1.951,14.143,3.196,28.356,5.821,42.405c2.402,12.855,5.711,28.582,15.687,37.907
					c5.02,4.693,12.582-2.837,7.545-7.545c-8.841-8.265-11.074-23.202-13.184-34.493c-2.543-13.607-3.689-27.409-5.579-41.11
					C498.348,695.699,488.068,698.601,488.996,705.327L488.996,705.327z"/>
			</g>
		</g>
		<g>
			<g>
				<path fill="#ffd700" d="M527.39,708.288c9.401,10.021,9.977,24.939,10.973,37.901c1.018,13.249,1.914,27.402,9.447,38.819
					c3.771,5.715,13.016,0.376,9.214-5.386c-7.731-11.716-7.374-26.811-8.544-40.289c-1.207-13.902-3.658-28.052-13.544-38.59
					C530.219,695.715,522.688,703.276,527.39,708.288L527.39,708.288z"/>
			</g>
		</g>
		<g>
			<g>
				<path fill="#ffd700" d="M558.107,705.142c8.782,8.241,10.531,23.475,12.503,34.68c2.317,13.169,3.323,26.812,7.228,39.646
					c1.997,6.564,12.298,3.764,10.29-2.837c-4.155-13.656-5.16-28.223-7.688-42.228c-2.253-12.482-5.102-27.719-14.787-36.808
					C560.641,692.893,553.08,700.424,558.107,705.142L558.107,705.142z"/>
			</g>
		</g>
		<g>
			<g>
				<path fill="#ffd700" d="M586.005,697.534c9.993,28.141,16.086,57.665,20.257,87.188c0.959,6.79,11.24,3.891,10.29-2.837
					c-4.171-29.523-10.264-59.048-20.257-87.189C594.009,688.26,583.696,691.032,586.005,697.534L586.005,697.534z"/>
			</g>
		</g>
		<g>
			<g>
				<path fill="#ffd700" d="M621.728,697.166c5.647,23.588,12.384,46.887,20.152,69.864c2.192,6.482,12.5,3.701,10.29-2.837
					c-7.768-22.976-14.505-46.276-20.152-69.864C630.416,687.638,620.126,690.477,621.728,697.166L621.728,697.166z"/>
			</g>
		</g>
		<g>
			<g>
				<path fill="#ffd700" d="M650.862,682.699c4.236,28.804,19.676,56.505,17.823,86.089c-0.431,6.875,10.243,6.834,10.671,0
					c1.919-30.644-13.823-59.136-18.204-88.926C660.153,673.075,649.872,675.971,650.862,682.699L650.862,682.699z"/>
			</g>
		</g>
		<g>
			<g>
				<path fill="#ffd700" d="M693.403,673.294c1.787,13.288,1.925,26.755,3.56,40.066c1.591,12.955,4.145,26.921,12.267,37.539
					c4.12,5.387,13.396,0.082,9.214-5.386c-7.6-9.937-9.752-22.931-11.157-35.059c-1.541-13.304-1.809-26.718-3.594-39.997
					C702.779,663.664,692.499,666.568,693.403,673.294L693.403,673.294z"/>
			</g>
		</g>
		<g>
			<g>
				<path fill="#ffd700" d="M718.812,679.166c12.847,20.238,9.801,45.792,18.337,67.631c2.476,6.335,12.798,3.581,10.29-2.837
					c-8.914-22.806-5.942-48.959-19.413-70.18C724.35,667.99,715.112,673.338,718.812,679.166L718.812,679.166z"/>
			</g>
		</g>
		<g>
			<g>
				<path fill="#ffd700" d="M747.226,662.007c2.458,25.94,7.915,52.063,17.581,76.31c2.516,6.311,12.84,3.561,10.29-2.837
					c-9.3-23.331-14.833-48.5-17.2-73.474C757.254,655.218,746.577,655.155,747.226,662.007L747.226,662.007z"/>
			</g>
		</g>
		<g>
			<g>
				<path fill="#ffd700" d="M782.532,650.458c3.893,26.564,15.308,50.945,23.37,76.346c2.074,6.534,12.377,3.741,10.29-2.837
					c-8.062-25.401-19.477-49.781-23.37-76.346C791.827,640.833,781.546,643.73,782.532,650.458L782.532,650.458z"/>
			</g>
		</g>
		<g>
			<g>
				<path fill="#ffd700" d="M816.984,641.005c3.838,26.422,13.941,51.567,16.704,78.17c0.704,6.773,11.382,6.842,10.671,0
					c-2.867-27.598-13.108-53.622-17.085-81.007C826.288,631.38,816.007,634.277,816.984,641.005L816.984,641.005z"/>
			</g>
		</g>
		<g>
			<g>
				<path fill="#ffd700" d="M844.552,640.867c7.369,9.328,8.97,21.969,10.547,33.368c1.68,12.151,3.082,24.371,8.773,35.432
					c3.149,6.121,12.356,0.722,9.214-5.386c-5.627-10.939-6.405-23.808-8.104-35.788c-1.801-12.699-4.798-24.936-12.884-35.172
					C847.834,627.924,840.336,635.53,844.552,640.867L844.552,640.867z"/>
			</g>
		</g>
		<g>
			<g>
				<path fill="#ffd700" d="M875.693,615.203c-0.726,28.956,8.831,57.393,18.699,84.231c2.354,6.402,12.67,3.636,10.29-2.837
					c-9.539-25.942-19.02-53.399-18.318-81.394C886.537,608.317,875.866,608.334,875.693,615.203L875.693,615.203z"/>
			</g>
		</g>
		<g>
			<g>
				<path fill="#ffd700" d="M915.055,599.613c-0.237-1.742,0.164,1.489,0.223,2.018c0.161,1.45,0.312,2.901,0.465,4.352
					c0.404,3.85,0.807,7.7,1.23,11.548c1.091,9.909,2.323,19.81,3.931,29.65c1.294,7.918,4.821,39.095,19.54,31.632
					c6.139-3.113,0.736-12.318-5.386-9.214c1.543-0.782,2.343-0.355,3.368,0.449c-0.813-0.637-0.114,0.186-0.967-1.262
					c-1.284-2.18-1.914-4.571-2.681-7.283c-2.148-7.597-3.377-15.473-4.535-23.27c-2.045-13.773-3.017-27.668-4.897-41.457
					C924.419,589.984,914.138,592.887,915.055,599.613L915.055,599.613z"/>
			</g>
		</g>
		<g>
			<g>
				<path fill="#ffd700" d="M940.142,589.171c6.281,28.21,1.506,61.102,17.081,86.674c3.573,5.866,12.804,0.508,9.214-5.386
					c-7.204-11.828-9.016-26.301-10.498-39.818c-1.62-14.778-2.268-29.757-5.508-44.307
					C948.937,579.618,938.65,582.467,940.142,589.171L940.142,589.171z"/>
			</g>
		</g>
		<g>
			<g>
				<path fill="#ffd700" d="M974.788,583.256c0.248,0.14-0.145-0.121-0.319-0.361c0.525,0.726,0.904,1.56,1.278,2.369
					c0.827,1.789,1.539,4.578,2.131,6.762c1.872,6.901,3.157,13.969,4.456,20.996c2.414,13.057,3.761,26.923,8.206,39.496
					c2.277,6.441,12.59,3.668,10.29-2.837c-4.7-13.293-6.061-27.998-8.634-41.8c-1.327-7.119-2.712-14.26-4.738-21.219
					c-1.283-4.404-2.995-10.195-7.284-12.62C974.175,570.652,968.799,579.871,974.788,583.256L974.788,583.256z"/>
			</g>
		</g>
		<g>
			<g>
				<path fill="#ffd700" d="M996.555,552.632c6.014,10.36,6.897,24.239,8.099,35.882c1.511,14.636,2.079,29.353,2.719,44.047
					c0.299,6.854,10.971,6.883,10.671,0c-0.661-15.172-1.305-30.348-2.865-45.46c-1.356-13.138-2.634-28.182-9.41-39.854
					C1002.316,541.299,993.093,546.669,996.555,552.632L996.555,552.632z"/>
			</g>
		</g>
		<g>
			<g>
				<path fill="#ffd700" d="M1016.44,532.353c5.652,32.678,8.091,65.792,12.648,98.623c0.943,6.791,11.223,3.89,10.29-2.837
					c-4.558-32.835-6.995-65.938-12.648-98.623C1025.559,522.745,1015.277,525.625,1016.44,532.353L1016.44,532.353z"/>
			</g>
		</g>
		<g>
			<g>
				<path fill="#ffd700" d="M1040.842,517.106c-0.785,28.75,4.533,57.28,8.527,85.637c0.956,6.791,11.237,3.89,10.29-2.837
					c-3.864-27.435-8.905-54.985-8.145-82.801C1051.7,510.22,1041.029,510.239,1040.842,517.106L1040.842,517.106z"/>
			</g>
		</g>
		<g>
			<g>
				<path fill="#ffd700" d="M1056.442,504.824c3.303,23.403,7.637,46.636,12.073,69.846c1.291,6.754,11.574,3.886,10.29-2.837
					c-4.435-23.21-8.77-46.443-12.073-69.846C1065.773,495.197,1055.493,498.097,1056.442,504.824L1056.442,504.824z"/>
			</g>
		</g>
	</g>
	<g>
		<g>
			<g>
				<path fill="#ffd700" d="M167.464,708.585c-12.216,29.866-11.721,63.241,6.509,90.568c17.757,26.617,46.4,44.232,75.017,57.16
					c55.315,24.989,115.482,36.277,174.973,46.281c6.94,1.167,13.887-1.722,15.896-9.026c1.722-6.26-2.071-14.727-9.026-15.896
					c-27.359-4.6-54.667-9.429-81.682-15.786c-16.542-3.892-32.956-8.349-49.131-13.564c-8.166-2.633-16.257-5.5-24.257-8.599
					c-1.901-0.736-3.793-1.495-5.682-2.262c-0.94-0.382-1.877-0.771-2.814-1.161c3.015,1.254-0.143-0.066-0.634-0.277
					c-3.979-1.71-7.916-3.515-11.821-5.388c-12.801-6.142-25.168-13.288-36.511-21.847c-1.115-0.852-0.952-0.727,0.488,0.377
					c-0.701-0.548-1.392-1.108-2.082-1.668c-1.366-1.108-2.701-2.252-4.025-3.41c-2.588-2.265-5.066-4.653-7.458-7.123
					c-2.134-2.204-4.153-4.516-6.09-6.893c-0.47-0.576-2.234-2.91-0.005,0.021c-0.495-0.651-0.973-1.314-1.45-1.977
					c-0.948-1.317-1.843-2.67-2.719-4.036c-1.588-2.477-3.012-5.055-4.327-7.686c-0.594-1.189-1.14-2.401-1.673-3.618
					c1.673,3.823-0.382-1.162-0.716-2.112c-0.977-2.774-1.742-5.619-2.379-8.489c-0.352-1.587-0.625-3.191-0.871-4.798
					c0.655,4.279-0.08-1.267-0.158-2.315c-0.232-3.118-0.218-6.251-0.076-9.373c0.081-1.768,0.247-3.53,0.439-5.289
					c0.344-3.146-0.452,3.002,0.025-0.161c0.138-0.914,0.304-1.825,0.469-2.734c1.377-7.573,3.78-14.933,6.69-22.046
					c2.671-6.531-2.846-14.196-9.026-15.896C175.953,697.522,170.129,702.071,167.464,708.585L167.464,708.585z"/>
			</g>
		</g>
		<g>
			<g>
				<path fill="#ffd700" d="M365.894,896.815c127.588,17.303,255.994,41.401,385.29,32.061c43.322-3.129,86.128-10.524,128.115-21.534
					c33.76-8.853,67.096-19.871,98.792-34.562c27.437-12.716,56.164-29.409,73.122-55.271c7.187-10.961,11.298-24.458,10.348-37.604
					c-1.195-16.531-8.96-30.704-19.028-43.5c-10.899-13.852-25.134-25.012-39.432-35.127c-5.761-4.076-14.353-1.044-17.68,4.636
					c-3.793,6.476-1.102,13.621,4.636,17.68c8.324,5.889,15.448,11.509,23.492,19.31c3.093,3,6.024,6.165,8.81,9.452
					c0.647,0.763,1.274,1.544,1.9,2.324c-2.035-2.537-0.012-0.001,0.328,0.459c1.276,1.722,2.467,3.504,3.615,5.313
					c1.808,2.849,3.387,5.837,4.776,8.91c-1.708-3.779,0.352,1.028,0.686,1.994c0.566,1.638,1.021,3.311,1.424,4.996
					c0.26,1.087,1.038,6.15,0.416,1.474c0.183,1.373,0.273,2.757,0.331,4.14c0.057,1.359,0.022,2.719-0.045,4.076
					c-0.033,0.673-0.097,1.344-0.16,2.014c-0.219,2.31,0.587-3.576-0.003-0.113c-0.453,2.656-1.198,5.255-2.092,7.792
					c-0.226,0.642-0.478,1.275-0.73,1.908c1.503-3.778,0.581-1.387,0.205-0.568c-0.68,1.482-1.451,2.921-2.253,4.341
					c-1.424,2.522-3.065,4.918-4.797,7.238c2.553-3.419-0.633,0.715-1.292,1.488c-1.177,1.38-2.413,2.707-3.669,4.015
					c-2.244,2.339-4.626,4.544-7.064,6.679c-1.267,1.11-2.567,2.182-3.875,3.242c-0.542,0.439-2.913,2.288-0.087,0.105
					c-0.921,0.712-1.857,1.405-2.794,2.097c-6.167,4.549-12.674,8.628-19.313,12.446c-7.124,4.097-14.465,7.811-21.901,11.308
					c-3.698,1.739-7.432,3.4-11.184,5.021c-0.462,0.2-3.67,1.555-0.714,0.312c-0.955,0.402-1.913,0.797-2.871,1.192
					c-2.245,0.926-4.5,1.826-6.759,2.716c-16.11,6.352-32.563,11.824-49.158,16.759c-33.88,10.074-68.506,17.896-103.514,22.814
					c-126.793,17.812-255.581-3.769-381.07-21.667c-12.638-1.802-25.28-3.575-37.93-5.291c-6.975-0.946-13.843,1.562-15.896,9.026
					C355.192,887.014,358.9,895.866,365.894,896.815L365.894,896.815z"/>
			</g>
		</g>
		<g>
			<g>
				<path fill="#ffd700" d="M164.624,753.587c-1.929,46.466-3.471,92.962-3.738,139.471c-0.096,16.671,25.749,16.661,25.845,0
					c0.267-46.508,1.809-93.005,3.738-139.471c0.292-7.042-6.099-12.922-12.922-12.922
					C170.281,740.665,164.916,746.552,164.624,753.587L164.624,753.587z"/>
			</g>
		</g>
		<g>
			<g>
				<path fill="#ffd700" d="M167.286,904.216c43.275,27.287,91.381,46.804,139.927,62.497c52.934,17.112,107.519,29.271,162.554,37.254
					c26.043,3.778,52.161,5.894,78.318,8.56c19.819,2.02,39.682,3.6,59.566,4.816c45.829,2.804,91.819,3.548,137.699,1.624
					c47.415-1.989,95.007-6.884,141.388-17.154c40.284-8.92,81.03-22.396,115.567-45.468c15.614-10.43,29.716-22.771,39.538-38.955
					c9.12-15.027,12.844-32.235,14.525-49.518c1.58-16.239,0.97-32.612,1.886-48.889c0.882-15.678,3.789-32.417,10.738-47.011
					c3.028-6.36,1.818-13.9-4.636-17.68c-5.686-3.331-14.653-1.722-17.68,4.636c-10.877,22.842-14.066,47.127-14.758,72.185
					c-0.303,10.972-0.3,21.952-1.073,32.906c-0.445,6.303-0.672,8.018-1.58,13.091c-0.977,5.455-2.432,10.81-4.284,16.03
					c-0.009,0.025-1.556,3.963-0.612,1.734c-0.513,1.21-1.081,2.395-1.65,3.579c-1.165,2.426-2.505,4.762-3.901,7.061
					c-3.23,5.322-6.007,8.573-10.653,13.315c-7.235,7.385-15.783,13.34-24.5,18.829c-8.111,5.108-16.597,9.607-25.254,13.714
					c-2.15,1.02-4.32,1.999-6.495,2.965c-1.098,0.488-2.202,0.962-3.306,1.436c2.497-1.073-1.19,0.487-1.381,0.565
					c-4.938,2.032-9.938,3.911-14.967,5.707c-42.149,15.053-87.195,22.704-129.837,27.048c-47.03,4.791-94.426,5.811-141.664,4.678
					c-21.927-0.526-43.842-1.588-65.723-3.093c-19.771-1.36-39.454-3.635-59.206-5.133c-54.295-4.117-107.871-13.272-161.009-26.472
					C306.814,942.181,239.67,919.317,180.33,881.9C166.187,872.982,153.23,895.354,167.286,904.216L167.286,904.216z"/>
			</g>
		</g>
		<g>
			<g>
				<path fill="#ffd700" d="M206.472,823.524c10.925,19.509,13.97,42.913,7.846,64.457c-1.886,6.633,8.411,9.444,10.29,2.837
					c6.897-24.261,3.371-50.728-8.921-72.68C212.324,812.135,203.106,817.514,206.472,823.524L206.472,823.524z"/>
			</g>
		</g>
		<g>
			<g>
				<path fill="#ffd700" d="M238.375,843.858c-1.443,22.978,5.62,45.479,4.184,68.457c-0.429,6.875,10.244,6.834,10.671,0
					c1.435-22.979-5.627-45.479-4.184-68.457C249.478,836.983,238.804,837.025,238.375,843.858L238.375,843.858z"/>
			</g>
		</g>
		<g>
			<g>
				<path fill="#ffd700" d="M213.049,890.231c0.195,6.905-0.557,13.725-1.396,20.567c-0.355,2.894,2.696,5.335,5.335,5.335
					c3.176,0,4.981-2.45,5.335-5.335c0.84-6.843,1.591-13.662,1.396-20.567C223.526,883.364,212.855,883.345,213.049,890.231
					L213.049,890.231z"/>
			</g>
		</g>
		<g>
			<g>
				<path fill="#ffd700" d="M195.315,819.796c-4.374,26.552-0.237,53.601,2.717,80.079c0.754,6.76,11.433,6.834,10.671,0
					c-2.827-25.341-7.287-51.816-3.098-77.243C206.713,815.903,196.431,813.018,195.315,819.796L195.315,819.796z"/>
			</g>
		</g>
		<g>
			<g>
				<path fill="#ffd700" d="M262.074,857.159c-0.533,24.177,0.908,48.455,5.22,72.271c1.225,6.764,11.508,3.89,10.29-2.837
					c-4.141-22.868-5.351-46.226-4.839-69.435C272.897,850.274,262.225,850.288,262.074,857.159L262.074,857.159z"/>
			</g>
		</g>
		<g>
			<g>
				<path fill="#ffd700" d="M286.907,869.737c7.422,10.724,6.841,24.815,6.932,37.299c0.097,13.262,0.122,26.722,5.468,39.096
					c2.723,6.302,11.913,0.862,9.214-5.386c-10.389-24.048,3.263-53.763-12.4-76.395
					C292.234,858.734,282.98,864.062,286.907,869.737L286.907,869.737z"/>
			</g>
		</g>
		<g>
			<g>
				<path fill="#ffd700" d="M323.241,874.808c-4.442,25.653-7.119,53.018-1.342,78.672c1.511,6.712,11.799,3.865,10.29-2.837
					c-5.33-23.67-2.756-49.329,1.342-72.999C334.696,870.917,324.414,868.037,323.241,874.808L323.241,874.808z"/>
			</g>
		</g>
		<g>
			<g>
				<path fill="#ffd700" d="M349.741,877.469c4.792,26.327,7.689,55.101,3.337,81.67c-1.102,6.729,9.18,9.615,10.29,2.837
					c4.685-28.605,1.825-58.982-3.337-87.344C358.799,867.869,348.517,870.742,349.741,877.469L349.741,877.469z"/>
			</g>
		</g>
		<g>
			<g>
				<path fill="#ffd700" d="M384.01,886.079c-2.844,23.681-1.95,47.247,1.955,70.754c1.126,6.776,11.408,3.892,10.29-2.837
					c-3.743-22.533-4.298-45.236-1.574-67.917C395.501,879.256,384.82,879.335,384.01,886.079L384.01,886.079z"/>
			</g>
		</g>
		<g>
			<g>
				<path fill="#ffd700" d="M415.061,895.692c-1.82,14.4-4.351,28.683-5.432,43.174c-0.961,12.882-1.712,28.606,5.393,40.049
					c3.621,5.831,12.855,0.478,9.214-5.386c-6.49-10.453-4.662-25.774-3.723-37.406c1.094-13.558,3.514-26.948,5.219-40.431
					C426.593,888.878,415.912,888.961,415.061,895.692L415.061,895.692z"/>
			</g>
		</g>
		<g>
			<g>
				<path fill="#ffd700" d="M451.384,908.572c6.37,11.938,3.23,26.242,0.869,38.843c-2.484,13.254-5.416,27.341-1.048,40.526
					c2.153,6.499,12.46,3.714,10.29-2.837c-4.353-13.142-0.264-27.389,2.094-40.535c2.501-13.944,3.921-28.432-2.99-41.383
					C457.358,897.114,448.146,902.504,451.384,908.572L451.384,908.572z"/>
			</g>
		</g>
		<g>
			<g>
				<path fill="#ffd700" d="M481.86,913.491c6.34,10.25,4.069,25.413,3.066,36.756c-1.175,13.291-3.729,26.696-3.291,40.076
					c0.225,6.863,10.896,6.885,10.671,0c-0.468-14.29,2.339-28.642,3.529-42.846c1.06-12.654,2.229-28.07-4.761-39.371
					C487.462,902.267,478.229,907.621,481.86,913.491L481.86,913.491z"/>
			</g>
		</g>
		<g>
			<g>
				<path fill="#ffd700" d="M510.769,913.321c2.348,29.77,0.585,59.861-3.041,89.457c-0.836,6.82,9.845,6.739,10.671,0
					c3.627-29.595,5.39-59.687,3.041-89.457C520.902,906.509,510.227,906.456,510.769,913.321L510.769,913.321z"/>
			</g>
		</g>
		<g>
			<g>
				<path fill="#ffd700" d="M545.366,922.217c-0.66,24.253-0.199,48.508,1.341,72.72c0.435,6.832,11.108,6.875,10.671,0
					c-1.54-24.212-2.001-48.468-1.341-72.72C556.225,915.331,545.553,915.35,545.366,922.217L545.366,922.217z"/>
			</g>
		</g>
		<g>
			<g>
				<path fill="#ffd700" d="M577.248,915.813c-3.379,28.913,4.377,59.682-5.096,87.767c-2.206,6.539,8.103,9.321,10.29,2.837
					c9.815-29.098,1.982-60.695,5.477-90.603C588.717,908.986,578.037,909.063,577.248,915.813L577.248,915.813z"/>
			</g>
		</g>
		<g>
			<g>
				<path fill="#ffd700" d="M620.778,917.744c-1.76,13.579-5.199,26.891-7.056,40.462c-1.737,12.698-2.76,26.511,2.216,38.644
					c2.574,6.276,12.902,3.531,10.29-2.837c-4.85-11.825-3.425-25.228-1.555-37.551c1.966-12.96,5.09-25.713,6.776-38.719
					C632.332,910.934,621.65,911.019,620.778,917.744L620.778,917.744z"/>
			</g>
		</g>
		<g>
			<g>
				<path fill="#ffd700" d="M643.796,930.07c7.115,22.865-2.366,46.717,0.169,70.01c0.736,6.765,11.415,6.837,10.671,0
					c-2.651-24.356,6.921-48.84-0.55-72.847C652.048,920.685,641.746,923.481,643.796,930.07L643.796,930.07z"/>
			</g>
		</g>
		<g>
			<g>
				<path fill="#ffd700" d="M675.686,920.829c-4.344,25.689-5.851,52.322-2.802,78.245c0.794,6.749,11.474,6.826,10.671,0
					c-2.933-24.934-1.76-50.683,2.421-75.408C687.113,916.937,676.831,914.055,675.686,920.829L675.686,920.829z"/>
			</g>
		</g>
		<g>
			<g>
				<path fill="#ffd700" d="M712.781,918.783c-3.119,26.667,1.576,53.171,2.772,79.796c0.308,6.852,10.98,6.882,10.671,0
					c-1.196-26.625-5.891-53.129-2.772-79.796C724.25,911.956,713.57,912.033,712.781,918.783L712.781,918.783z"/>
			</g>
		</g>
		<g>
			<g>
				<path fill="#ffd700" d="M748.503,918.622c-3.13,26.503,0.087,53.399-4.128,79.798c-1.074,6.729,9.207,9.618,10.29,2.837
					c4.372-27.39,1.265-55.163,4.509-82.635C759.98,911.797,749.3,911.875,748.503,918.622L748.503,918.622z"/>
			</g>
		</g>
		<g>
			<g>
				<path fill="#ffd700" d="M775.172,925.66c4.69,10.958,2.944,23.596,1.506,35.046c-1.526,12.158-3.303,24.288-0.693,36.433
					c1.445,6.726,11.731,3.873,10.29-2.837c-2.591-12.059-0.002-24.705,1.465-36.751c1.551-12.739,1.777-25.289-3.353-37.276
					C781.686,913.965,772.496,919.407,775.172,925.66L775.172,925.66z"/>
			</g>
		</g>
		<g>
			<g>
				<path fill="#ffd700" d="M811.905,908.901c-8.218,27.775-6.363,57.72-3.775,86.197c0.618,6.795,11.294,6.855,10.671,0
					c-2.501-27.517-4.549-56.515,3.394-83.36C824.152,905.123,813.853,902.318,811.905,908.901L811.905,908.901z"/>
			</g>
		</g>
		<g>
			<g>
				<path fill="#ffd700" d="M853.945,904.06c-0.155,1.215,0.188-1.334-0.015,0.091c-0.093,0.653-0.193,1.306-0.293,1.958
					c-0.223,1.462-0.457,2.922-0.689,4.383c-0.616,3.875-1.234,7.749-1.829,11.627c-1.528,9.947-2.922,19.924-3.911,29.94
					c-0.789,7.988-5.292,38.479,10.745,35.089c6.731-1.423,3.876-11.709-2.837-10.29c1.656-0.35,2.354,0.235,3.109,1.254
					c-0.621-0.838-0.152,0.137-0.597-1.503c-0.67-2.466-0.652-4.931-0.683-7.83c-0.085-7.998,0.791-16.024,1.717-23.957
					c1.593-13.648,4.217-27.139,5.955-40.761C865.485,897.247,854.804,897.33,853.945,904.06L853.945,904.06z"/>
			</g>
		</g>
		<g>
			<g>
				<path fill="#ffd700" d="M880.883,900.483c-1.272,28.878-14.356,59.418-5.958,88.159c1.926,6.591,12.224,3.784,10.29-2.837
					c-3.887-13.304-1.89-27.753,0.183-41.205c2.259-14.659,5.502-29.26,6.156-44.117
					C891.858,893.601,881.185,893.63,880.883,900.483L880.883,900.483z"/>
			</g>
		</g>
		<g>
			<g>
				<path fill="#ffd700" d="M915.901,903.777c0.204,0.2-0.11-0.113-0.22-0.406c0.322,0.855,0.472,1.777,0.624,2.673
					c0.32,1.895,0.29,4.918,0.291,7.206c0.003,7.275-0.607,14.557-1.19,21.803c-1.049,13.042-3.289,26.582-2.264,39.684
					c0.533,6.814,11.208,6.865,10.671,0c-1.115-14.26,1.446-29.031,2.544-43.232c0.56-7.235,1.073-14.514,0.86-21.775
					c-0.131-4.457-0.372-10.154-3.77-13.5C918.54,891.402,910.991,898.944,915.901,903.777L915.901,903.777z"/>
			</g>
		</g>
		<g>
			<g>
				<path fill="#ffd700" d="M944.853,879.864c3.177,11.761,0.315,25.674-1.6,37.417c-2.329,14.282-5.541,28.405-8.667,42.528
					c-1.484,6.705,8.802,9.554,10.29,2.837c3.336-15.066,6.705-30.129,9.126-45.376c2.039-12.843,4.606-27.419,1.142-40.243
					C953.35,870.391,943.056,873.211,944.853,879.864L944.853,879.864z"/>
			</g>
		</g>
		<g>
			<g>
				<path fill="#ffd700" d="M969.302,865.368c-3.003,33.032-9.248,65.647-13.35,98.543c-0.85,6.817,9.831,6.735,10.671,0
					c4.102-32.898,10.346-65.506,13.35-98.543C980.596,858.513,969.92,858.573,969.302,865.368L969.302,865.368z"/>
			</g>
		</g>
		<g>
			<g>
				<path fill="#ffd700" d="M996.847,856.97c-8.234,27.562-10.496,56.509-13.988,84.936c-0.838,6.819,9.843,6.739,10.671,0
					c3.38-27.505,5.641-55.431,13.607-82.099C1009.112,853.197,998.812,850.393,996.847,856.97L996.847,856.97z"/>
			</g>
		</g>
		<g>
			<g>
				<path fill="#ffd700" d="M1015.085,849.159c-2.88,23.467-4.718,47.038-6.453,70.613c-0.505,6.869,10.169,6.82,10.671,0
					c1.734-23.575,3.572-47.145,6.453-70.613C1026.593,842.34,1015.912,842.421,1015.085,849.159L1015.085,849.159z"/>
			</g>
		</g>
	</g>
	<g>
		<g>
			<path fill="#ffd700" d="M191.554,719.277c8.504-13.499,18.927-27.334,32.123-35.797c5.917-3.795,8.307-11.414,4.636-17.68
				c-3.448-5.885-11.745-8.442-17.68-4.636c-17.399,11.159-30.492,27.761-41.395,45.069
				C160.326,720.379,182.697,733.336,191.554,719.277L191.554,719.277z"/>
		</g>
	</g>
	<g>
		<g>
			<path fill="#ffd700" d="M1007.167,700.294c-13.035-4.457-25.341-10.803-38.579-14.707c-16.025-4.726-22.82,20.218-6.871,24.922
				c13.238,3.904,25.544,10.25,38.579,14.707c6.668,2.28,14.114-2.548,15.896-9.026
				C1018.147,709.086,1013.826,702.571,1007.167,700.294L1007.167,700.294z"/>
		</g>
	</g>
</g>
</svg>
