<svg width="300" height="300" viewBox="0 0 300 300" fill="none" xmlns="http://www.w3.org/2000/svg">
<line x1="149.5" y1="99.7112" x2="149.5" y2="43" stroke="#95938F"/>
<path d="M114.93 122.31V231.281H184.048V122.31L204.469 105.104V92.1996V79.2952H190.331V92.1996H174.622V79.2952H157.343V92.1996H140.063V79.2952H122.784V92.1996H106.29V79.2952H92.9375V105.104L114.93 122.31Z" fill="#414B4D"/>
<line x1="67" y1="230.781" x2="233" y2="230.781" stroke="#94962E"/>
<path d="M186.312 45.2684H147.406V63.416H186.312L176.802 54.876L186.312 45.2684Z" fill="#E64940"/>
<path d="M246.837 197.464C185.644 202.414 104.47 204.27 50.1464 197.464C54.6421 190.534 52.644 170.857 51.3952 160.957C138.189 175.807 228.729 164.051 246.837 160.957C243.34 170.362 245.38 189.42 246.837 197.464Z" fill="#FF0000"/>
<path d="M245.588 183.475C269.066 186.445 282.428 179.762 286.175 176.05L271.813 172.956L257.452 165.531L268.691 161.2L276.808 154.393C279.93 149.65 286.424 139.667 287.423 137.687C288.422 135.707 269.524 146.35 259.949 151.918H249.959L219.362 150.681V151.918L247.461 161.2L245.588 183.475Z" fill="#FF0000"/>
<path d="M32.0384 183.232L14.5548 177.664V176.426L23.921 173.951L40.7802 165.289L30.1652 160.339C26.835 157.657 20.0497 151.924 19.5501 150.439C19.0506 148.954 13.5141 140.332 10.8083 136.207C16.0118 139.92 26.6684 147.469 27.6675 147.964C28.6666 148.459 40.1558 151.057 45.7755 152.295L78.8694 150.439L80.7426 152.295L51.3952 161.576L53.2684 170.239V183.232C53.2684 184.717 46.1918 184.676 42.6534 184.47L32.0384 183.232Z" fill="#FF0000" stroke="black"/>
<path fill-rule="evenodd" clip-rule="evenodd" d="M48.5047 198.944C48.5047 194.932 51.6137 188.846 51.6137 184.835C33.7245 186.399 17.7465 184.921 6.68293 173.886C16.0102 174.902 23.7535 173.707 37.9379 165.167C22.3404 162.408 14.4229 144.615 5.81311 131.613C37.8648 154.713 52.9151 151.347 82.2948 148.839C82.2948 153.088 78.9864 158.041 82.5445 163.35C102.227 166.763 121.798 165.17 138.813 165.183C158.141 164.604 199.496 166.737 216.24 163.328C218.674 159.346 216.587 153.076 216.49 148.816C245.868 151.337 260.919 154.71 292.972 131.613C284.362 144.593 276.444 162.4 260.847 165.16C275.031 173.696 282.775 174.893 292.102 173.877C281.038 184.91 265.06 186.387 247.17 184.829C247.17 188.84 250.28 194.926 250.28 198.938C214.917 205.485 165.283 203.237 139.069 203.032C99.661 202.227 71.8713 205.197 48.5032 198.947L48.5047 198.944ZM242.391 195.461C238.645 177.304 241.919 174.948 245.381 161.971C215.161 166.362 211.245 169.62 139.069 169.62C80.7426 169.62 77.7573 167.207 53.4004 161.994C56.8633 174.971 58.8882 184.852 52.8964 195.484C70.752 200.557 139.069 198.944 139.069 198.944C139.069 198.944 230.528 201.823 242.391 195.461ZM41.0102 182.688C46.8958 182.644 50.6347 181.194 52.1256 181.528C52.1256 172.548 49.9355 168.794 49.9355 159.813C59.7203 156.771 66.9794 152.625 77.1938 151.46C52.7577 151.833 44.1054 162.758 15.3082 141.614C26.5235 157.461 36.1879 164.775 46.7594 164.439C39.7118 167.438 34.8759 175.942 20.478 177.326C28.9501 181.668 35.8165 182.727 41.0102 182.688ZM257.769 182.665C262.962 182.704 269.829 181.646 278.301 177.304C263.903 175.921 259.067 167.415 252.019 164.417C262.592 164.753 272.256 157.439 283.471 141.592C254.673 162.736 246.021 151.81 221.585 151.438C231.799 152.603 239.059 156.749 248.843 159.791C248.843 168.771 246.653 172.525 246.653 181.506C248.145 181.172 251.883 182.621 257.769 182.665Z" fill="#A00000"/>
<path d="M67.3736 191C67.7095 188.672 67.8775 186.047 67.8775 183.125C67.8775 182.703 67.8736 182.281 67.8658 181.859C67.8033 178.422 67.6627 176.047 67.4439 174.734L67.3736 174.336C68.3189 174.227 69.2759 173.895 70.2447 173.34L70.3267 173.293C69.983 175.457 69.8072 178.078 69.7994 181.156C70.7994 181.273 71.8502 181.332 72.9517 181.332C73.022 181.332 73.0923 181.332 73.1627 181.332C74.8345 181.332 76.0298 181.254 76.7486 181.098C76.6861 178.16 76.5494 176.039 76.3384 174.734L76.2681 174.336C77.2134 174.227 78.1705 173.895 79.1392 173.34L79.2213 173.293C78.8697 175.504 78.6939 178.191 78.6939 181.355C78.6939 181.488 78.6939 181.625 78.6939 181.766C78.6939 185.523 78.8384 188.102 79.1275 189.5L79.2213 189.922C78.69 189.984 78.2134 190.094 77.7916 190.25C77.1119 190.5 76.6041 190.75 76.2681 191C76.6041 188.633 76.772 185.965 76.772 182.996C76.772 182.871 76.772 182.738 76.772 182.598C76.0142 182.496 75.1041 182.445 74.0416 182.445C73.7525 182.445 73.4752 182.449 73.2095 182.457C71.3267 182.512 70.1939 182.574 69.8111 182.645C69.8423 185.996 69.983 188.281 70.233 189.5L70.3267 189.922C69.7955 189.984 69.3189 190.094 68.897 190.25C68.2173 190.5 67.7095 190.75 67.3736 191ZM82.1922 181.156C82.3953 180.688 82.7391 180.258 83.2234 179.867L83.7742 179.422L86.4461 177.758C86.8914 177.875 87.4422 178.102 88.0984 178.438C88.7234 178.758 89.3094 179.184 89.8563 179.715C90.5438 180.387 91.0281 181.109 91.3094 181.883C91.6141 182.633 91.7781 183.453 91.8016 184.344C91.8563 186.562 92.0008 188.281 92.2352 189.5L92.3289 189.922C91.7977 189.984 91.3211 190.094 90.8992 190.25C90.2195 190.5 89.7117 190.75 89.3758 191C89.6727 188.891 89.8211 186.793 89.8211 184.707C89.8211 184.605 89.8211 184.5 89.8211 184.391C89.8211 183.5 89.6805 182.82 89.3992 182.352C88.907 181.625 88.2273 181.059 87.3602 180.652C86.5789 180.285 85.4227 179.934 83.8914 179.598C83.7664 179.793 83.7039 180.133 83.7039 180.617C83.7039 180.922 83.7547 181.32 83.8563 181.812L82.1922 181.156ZM86.9031 191C86.4578 190.844 85.7508 190.516 84.782 190.016C84.0555 189.641 83.3523 189.078 82.6727 188.328C82.1727 187.547 81.9227 186.824 81.9227 186.16C81.9227 186.145 81.9227 186.125 81.9227 186.102C82.0398 185.156 82.4773 184.391 83.2352 183.805C84.5164 182.82 86.1219 182.32 88.0516 182.305C85.6688 183.18 84.2898 184.156 83.9148 185.234C83.8367 185.461 83.7977 185.68 83.7977 185.891C83.7977 186.25 83.9227 186.57 84.1727 186.852C84.8445 187.531 85.4109 187.984 85.8719 188.211C87.2859 188.906 88.45 189.297 89.3641 189.383L86.9031 191ZM95.0186 191C95.3155 188.656 95.4639 186.711 95.4639 185.164C95.4639 184.391 95.46 183.969 95.4522 183.898C95.4366 182.078 95.3116 180.441 95.0772 178.988L95.0186 178.801C95.9639 178.691 96.9209 178.359 97.8897 177.805L97.9717 177.758C97.8155 178.219 97.6475 178.75 97.4678 179.352L100.034 177.758C100.48 177.875 101.03 178.102 101.687 178.438C102.304 178.758 102.89 179.184 103.444 179.715L107.98 177.758C108.425 177.875 108.976 178.102 109.632 178.438C110.241 178.758 110.827 179.184 111.39 179.715C112.077 180.371 112.562 181.094 112.843 181.883C113.148 182.633 113.312 183.453 113.335 184.344C113.405 186.617 113.55 188.336 113.769 189.5L113.862 189.922C113.339 189.984 112.862 190.094 112.433 190.25C111.753 190.5 111.245 190.75 110.909 191C111.214 188.953 111.366 186.973 111.366 185.059C111.358 184.809 111.355 184.586 111.355 184.391C111.355 183.492 111.214 182.812 110.933 182.352C110.456 181.641 109.776 181.074 108.894 180.652C107.487 179.98 106.237 179.645 105.144 179.645C104.597 179.645 104.089 179.727 103.62 179.891C104.214 180.508 104.64 181.172 104.898 181.883C105.202 182.633 105.366 183.453 105.39 184.344C105.46 186.617 105.605 188.336 105.823 189.5L105.917 189.922C105.394 189.984 104.917 190.094 104.487 190.25C103.808 190.5 103.3 190.75 102.964 191C103.269 188.953 103.421 186.973 103.421 185.059C103.413 184.809 103.409 184.586 103.409 184.391C103.409 183.492 103.269 182.812 102.987 182.352C102.519 181.664 101.839 181.098 100.948 180.652C100.167 180.262 99.0108 179.91 97.4795 179.598H97.4678C97.4131 180.168 97.3858 181.434 97.3858 183.395V183.805C97.3858 186 97.5498 187.898 97.878 189.5L97.9717 189.922C97.4405 189.984 96.9639 190.094 96.542 190.25C95.8623 190.5 95.3545 190.75 95.0186 191ZM116.552 191C116.849 188.656 116.997 186.711 116.997 185.164C116.997 184.391 116.993 183.969 116.986 183.898C116.97 182.078 116.845 180.441 116.611 178.988L116.552 178.801C117.497 178.691 118.454 178.359 119.423 177.805L119.505 177.758C119.349 178.219 119.181 178.75 119.001 179.352L121.568 177.758C122.013 177.875 122.564 178.102 123.22 178.438C123.837 178.758 124.423 179.184 124.978 179.715L129.513 177.758C129.958 177.875 130.509 178.102 131.165 178.438C131.775 178.758 132.361 179.184 132.923 179.715C133.611 180.371 134.095 181.094 134.376 181.883C134.681 182.633 134.845 183.453 134.868 184.344C134.939 186.617 135.083 188.336 135.302 189.5L135.396 189.922C134.872 189.984 134.396 190.094 133.966 190.25C133.286 190.5 132.779 190.75 132.443 191C132.747 188.953 132.9 186.973 132.9 185.059C132.892 184.809 132.888 184.586 132.888 184.391C132.888 183.492 132.747 182.812 132.466 182.352C131.99 181.641 131.31 181.074 130.427 180.652C129.021 179.98 127.771 179.645 126.677 179.645C126.13 179.645 125.622 179.727 125.154 179.891C125.747 180.508 126.173 181.172 126.431 181.883C126.736 182.633 126.9 183.453 126.923 184.344C126.993 186.617 127.138 188.336 127.357 189.5L127.45 189.922C126.927 189.984 126.45 190.094 126.021 190.25C125.341 190.5 124.833 190.75 124.497 191C124.802 188.953 124.954 186.973 124.954 185.059C124.947 184.809 124.943 184.586 124.943 184.391C124.943 183.492 124.802 182.812 124.521 182.352C124.052 181.664 123.372 181.098 122.482 180.652C121.7 180.262 120.544 179.91 119.013 179.598H119.001C118.947 180.168 118.919 181.434 118.919 183.395V183.805C118.919 186 119.083 187.898 119.411 189.5L119.505 189.922C118.974 189.984 118.497 190.094 118.075 190.25C117.396 190.5 116.888 190.75 116.552 191ZM142.867 191.047C142.406 190.938 141.851 190.711 141.203 190.367C140.554 190.016 139.968 189.59 139.445 189.09C138.757 188.426 138.277 187.703 138.003 186.922C137.738 186.273 137.57 185.453 137.5 184.461V184.414C137.5 183.578 137.691 182.715 138.074 181.824C138.363 181.145 138.75 180.539 139.234 180.008C139.437 179.789 139.671 179.578 139.937 179.375L142.398 177.758C142.812 177.898 143.519 178.227 144.519 178.742C145.246 179.117 145.949 179.68 146.628 180.43C147.128 181.211 147.378 181.934 147.378 182.598C147.378 182.613 147.378 182.633 147.378 182.656C147.261 183.609 146.824 184.375 146.066 184.953C144.777 185.938 143.171 186.438 141.25 186.453C143.671 185.625 145.105 184.668 145.55 183.582C145.644 183.355 145.691 183.133 145.691 182.914C145.691 182.906 145.691 182.898 145.691 182.891C145.691 182.883 145.691 182.875 145.691 182.867C145.691 182.539 145.554 182.219 145.281 181.906C144.851 181.398 144.234 180.945 143.429 180.547C142.054 179.867 140.937 179.484 140.078 179.398C139.781 179.883 139.511 180.617 139.269 181.602C139.082 182.367 138.988 183.031 138.988 183.594C138.988 183.859 139.007 184.113 139.046 184.355C139.156 185.051 139.445 185.75 139.914 186.453C140.398 187.172 141.074 187.738 141.941 188.152C142.691 188.512 143.843 188.867 145.398 189.219L145.41 189.207C145.535 189.012 145.597 188.672 145.597 188.188C145.597 187.883 145.546 187.484 145.445 186.992L147.109 187.648C146.898 188.125 146.554 188.555 146.078 188.938C145.718 189.227 145.539 189.375 145.539 189.383L142.867 191.047ZM150.08 191C150.228 189.82 150.338 188.75 150.408 187.789C150.486 186.82 150.525 185.945 150.525 185.164C150.525 184.531 150.517 183.941 150.502 183.395C150.494 182.84 150.474 182.316 150.443 181.824C150.412 181.324 150.369 180.844 150.314 180.383C150.267 179.922 150.209 179.457 150.138 178.988L150.08 178.801C150.556 178.746 151.029 178.637 151.498 178.473C151.974 178.301 152.459 178.078 152.951 177.805L153.033 177.758C152.955 177.984 152.873 178.234 152.787 178.508C152.701 178.773 152.615 179.055 152.529 179.352L155.095 177.758C155.408 177.844 155.795 177.996 156.256 178.215C156.724 178.426 157.197 178.707 157.674 179.059C158.15 179.402 158.595 179.812 159.01 180.289C159.431 180.758 159.748 181.289 159.959 181.883L157.838 182.75C157.517 182.164 157.15 181.672 156.736 181.273C156.322 180.867 155.896 180.539 155.459 180.289C155.021 180.031 154.592 179.848 154.17 179.738C153.748 179.621 153.369 179.562 153.033 179.562C152.869 179.562 152.705 179.574 152.541 179.598H152.529C152.498 179.887 152.474 180.348 152.459 180.98C152.451 181.605 152.447 182.41 152.447 183.395V183.805C152.447 186 152.611 187.898 152.939 189.5L153.033 189.922C152.728 189.961 152.428 190.02 152.131 190.098C151.834 190.176 151.553 190.27 151.287 190.379C151.029 190.48 150.795 190.586 150.584 190.695C150.373 190.805 150.205 190.906 150.08 191ZM179.846 185.34C179.807 185.473 179.772 185.566 179.74 185.621C179.272 186.652 178.768 187.438 178.229 187.977C177.823 188.391 177.498 188.711 177.256 188.938C177.014 189.164 176.85 189.305 176.764 189.359L174.151 191C173.705 190.883 173.182 190.676 172.58 190.379C171.987 190.074 171.389 189.688 170.787 189.219C170.194 188.75 169.643 188.203 169.135 187.578C168.627 186.953 168.24 186.258 167.975 185.492C167.772 184.898 167.612 184.332 167.494 183.793C167.385 183.246 167.334 182.699 167.342 182.152C167.342 181.48 167.432 180.793 167.612 180.09C167.799 179.387 168.053 178.711 168.373 178.062C168.701 177.414 169.088 176.82 169.533 176.281C169.979 175.734 170.463 175.281 170.987 174.922L173.588 173.246C173.807 173.309 174.073 173.402 174.385 173.527C174.698 173.652 175.045 173.82 175.428 174.031C175.811 174.242 176.213 174.5 176.635 174.805C177.065 175.109 177.498 175.473 177.936 175.895C178.178 176.145 178.401 176.402 178.604 176.668L176.272 177.816C175.92 177.371 175.561 176.992 175.194 176.68C174.826 176.359 174.436 176.09 174.022 175.871C173.608 175.645 173.162 175.461 172.686 175.32C172.217 175.172 171.698 175.047 171.127 174.945L171.115 174.957C170.444 175.348 169.932 176.383 169.58 178.062C169.346 179.188 169.229 180.199 169.229 181.098C169.229 181.59 169.28 182.113 169.381 182.668C169.483 183.223 169.647 183.777 169.873 184.332C170.108 184.879 170.412 185.418 170.787 185.949C171.162 186.473 171.623 186.957 172.17 187.402C172.717 187.848 173.358 188.238 174.092 188.574C174.826 188.91 175.67 189.164 176.623 189.336C177.35 188.695 177.713 187.688 177.713 186.312C177.713 185.68 177.635 185.086 177.479 184.531L179.846 185.34ZM182.465 181.156C182.668 180.688 183.012 180.258 183.497 179.867L184.047 179.422L186.719 177.758C187.165 177.875 187.715 178.102 188.372 178.438C188.997 178.758 189.583 179.184 190.129 179.715C190.817 180.387 191.301 181.109 191.583 181.883C191.887 182.633 192.051 183.453 192.075 184.344C192.129 186.562 192.274 188.281 192.508 189.5L192.602 189.922C192.071 189.984 191.594 190.094 191.172 190.25C190.493 190.5 189.985 190.75 189.649 191C189.946 188.891 190.094 186.793 190.094 184.707C190.094 184.605 190.094 184.5 190.094 184.391C190.094 183.5 189.954 182.82 189.672 182.352C189.18 181.625 188.5 181.059 187.633 180.652C186.852 180.285 185.696 179.934 184.165 179.598C184.04 179.793 183.977 180.133 183.977 180.617C183.977 180.922 184.028 181.32 184.129 181.812L182.465 181.156ZM187.176 191C186.731 190.844 186.024 190.516 185.055 190.016C184.329 189.641 183.625 189.078 182.946 188.328C182.446 187.547 182.196 186.824 182.196 186.16C182.196 186.145 182.196 186.125 182.196 186.102C182.313 185.156 182.75 184.391 183.508 183.805C184.79 182.82 186.395 182.32 188.325 182.305C185.942 183.18 184.563 184.156 184.188 185.234C184.11 185.461 184.071 185.68 184.071 185.891C184.071 186.25 184.196 186.57 184.446 186.852C185.118 187.531 185.684 187.984 186.145 188.211C187.559 188.906 188.723 189.297 189.637 189.383L187.176 191ZM199.569 191.07C198.952 190.812 198.382 190.578 197.858 190.367C197.538 190.242 197.217 190.09 196.897 189.91C196.585 189.723 196.288 189.523 196.007 189.312C195.725 189.102 195.471 188.883 195.245 188.656C195.018 188.43 194.839 188.203 194.706 187.977L196.803 186.664C196.819 186.828 196.921 187.016 197.108 187.227C197.296 187.43 197.596 187.645 198.01 187.871C198.425 188.098 198.96 188.328 199.616 188.562C200.28 188.789 201.096 189.004 202.065 189.207C202.464 188.527 202.663 187.887 202.663 187.285C202.663 186.473 202.194 185.938 201.257 185.68L200.964 185.598C200.784 185.566 200.573 185.535 200.331 185.504C200.096 185.473 199.835 185.438 199.546 185.398C198.796 185.305 198.128 185.176 197.542 185.012C196.956 184.848 196.46 184.641 196.053 184.391C195.647 184.133 195.331 183.832 195.104 183.488C194.878 183.137 194.753 182.73 194.729 182.27C194.745 182.027 194.78 181.805 194.835 181.602C194.897 181.398 194.995 181.176 195.128 180.934C195.268 180.691 195.456 180.441 195.69 180.184C195.925 179.926 196.225 179.656 196.592 179.375L199.077 177.746C199.655 177.98 200.155 178.191 200.577 178.379C200.999 178.566 201.37 178.758 201.69 178.953C202.01 179.141 202.296 179.344 202.546 179.562C202.796 179.773 203.042 180.02 203.284 180.301L201.233 181.543C200.96 181.215 200.569 180.867 200.061 180.5C199.53 180.125 198.397 179.781 196.663 179.469L196.651 179.48C196.471 179.676 196.323 179.922 196.206 180.219C196.089 180.508 196.03 180.828 196.03 181.18C196.03 181.516 196.143 181.793 196.37 182.012C196.596 182.23 196.889 182.41 197.249 182.551C197.608 182.691 198.007 182.801 198.444 182.879C198.889 182.957 199.323 183.023 199.745 183.078C202.104 183.328 203.503 183.992 203.94 185.07C204.096 185.438 204.175 185.824 204.175 186.23C204.175 186.41 204.155 186.594 204.116 186.781C204.077 186.961 204.003 187.16 203.893 187.379C203.784 187.598 203.628 187.836 203.425 188.094C203.229 188.352 202.971 188.641 202.651 188.961C202.573 189.039 202.397 189.172 202.124 189.359L199.569 191.07ZM207.157 191C207.329 189.82 207.454 188.578 207.532 187.273C207.618 185.969 207.661 184.586 207.661 183.125C207.661 182.875 207.661 182.645 207.661 182.434C207.661 182.223 207.657 182.031 207.649 181.859L207.579 179.188C207.017 179.203 206.481 179.234 205.974 179.281C205.474 179.328 204.989 179.395 204.52 179.48C204.63 179.309 204.731 179.078 204.825 178.789C204.911 178.492 204.978 178.148 205.024 177.758L205.212 177.816C205.438 177.887 205.743 177.938 206.126 177.969C206.509 177.992 206.974 178.016 207.52 178.039C207.481 177.312 207.438 176.676 207.392 176.129C207.345 175.582 207.29 175.117 207.228 174.734L207.157 174.336C207.634 174.281 208.106 174.172 208.575 174.008C209.052 173.836 209.563 173.598 210.11 173.293C209.892 174.684 209.739 176.273 209.653 178.062C210.247 178.047 210.798 178.016 211.306 177.969C211.821 177.914 212.302 177.844 212.747 177.758C212.489 178.289 212.329 178.863 212.267 179.48L212.079 179.434C211.813 179.371 211.474 179.328 211.06 179.305C210.645 179.273 210.161 179.242 209.606 179.211C209.599 179.562 209.591 179.914 209.583 180.266C209.583 180.617 209.583 180.98 209.583 181.355V181.766C209.591 183.648 209.626 185.23 209.688 186.512C209.751 187.793 209.86 188.789 210.017 189.5L210.11 189.922C209.829 189.961 209.54 190.023 209.243 190.109C208.946 190.188 208.661 190.281 208.388 190.391C208.122 190.492 207.88 190.598 207.661 190.707C207.442 190.816 207.274 190.914 207.157 191ZM213.679 191C214.015 188.656 214.183 186.031 214.183 183.125C214.183 182.695 214.179 182.273 214.171 181.859C214.109 178.438 213.968 176.062 213.749 174.734L213.679 174.336C214.632 174.227 215.589 173.895 216.55 173.34L216.632 173.293C216.28 175.512 216.105 178.199 216.105 181.355C216.105 181.488 216.105 181.625 216.105 181.766C216.105 185.516 216.249 188.094 216.538 189.5L216.632 189.922C216.101 189.984 215.624 190.094 215.202 190.25C214.523 190.5 214.015 190.75 213.679 191ZM224.689 191.047C224.228 190.938 223.673 190.711 223.025 190.367C222.376 190.016 221.79 189.59 221.267 189.09C220.58 188.426 220.099 187.703 219.826 186.922C219.56 186.273 219.392 185.453 219.322 184.461V184.414C219.322 183.578 219.513 182.715 219.896 181.824C220.185 181.145 220.572 180.539 221.056 180.008C221.259 179.789 221.494 179.578 221.759 179.375L224.22 177.758C224.634 177.898 225.341 178.227 226.341 178.742C227.068 179.117 227.771 179.68 228.451 180.43C228.951 181.211 229.201 181.934 229.201 182.598C229.201 182.613 229.201 182.633 229.201 182.656C229.083 183.609 228.646 184.375 227.888 184.953C226.599 185.938 224.994 186.438 223.072 186.453C225.494 185.625 226.927 184.668 227.372 183.582C227.466 183.355 227.513 183.133 227.513 182.914C227.513 182.906 227.513 182.898 227.513 182.891C227.513 182.883 227.513 182.875 227.513 182.867C227.513 182.539 227.376 182.219 227.103 181.906C226.673 181.398 226.056 180.945 225.251 180.547C223.876 179.867 222.759 179.484 221.9 179.398C221.603 179.883 221.333 180.617 221.091 181.602C220.904 182.367 220.81 183.031 220.81 183.594C220.81 183.859 220.83 184.113 220.869 184.355C220.978 185.051 221.267 185.75 221.736 186.453C222.22 187.172 222.896 187.738 223.763 188.152C224.513 188.512 225.665 188.867 227.22 189.219L227.232 189.207C227.357 189.012 227.419 188.672 227.419 188.188C227.419 187.883 227.369 187.484 227.267 186.992L228.931 187.648C228.72 188.125 228.376 188.555 227.9 188.938C227.54 189.227 227.361 189.375 227.361 189.383L224.689 191.047Z" fill="white"/>
</svg>
