<svg width="259" height="264" viewBox="0 0 259 264" fill="none" xmlns="http://www.w3.org/2000/svg">
<path d="M168.5 24.4104L129.5 20.4104L211.5 97.9104L227 101.41L246 91.4104L258.5 86.9104C258.5 86.9104 235.4 61.7104 233 60.9104C230.6 60.1104 220 49.9104 215 44.9104C203.833 41.7437 181.2 35.2104 180 34.4104C178.8 33.6104 171.833 27.4104 168.5 24.4104Z" fill="#6D6761"/>
<path d="M38.3233 55.0765L16.6572 84.4506L35.7743 133.757L82.9299 139.003L242.239 122.217L218.661 80.7789L181.064 57.1747L135.183 19.9324L119.89 6.819L104.596 0L87.3906 6.819L77.0007 24.4104L58.7149 37.7667L38.3233 55.0765Z" fill="#9D9187"/>
<path d="M56.803 31.9969L38.3232 55.0766L28.1274 58.7484L2 80.779L0 87.0734L14 106.91L28.1274 115.91L35.7736 133.757L48.519 103.859L65.7244 87.0734L86.116 69.7637L93.1256 50.3558V24.6534L103.959 0.524658L86.116 6.29458L78.4691 17.3099L56.803 31.9969Z" fill="#C9AF9B"/>
<path d="M117.977 30.4231L146.653 59.2727L140.918 84.4505L132.634 94.9413L116.703 123.791C111.23 132.478 105.578 154.488 104.71 157.949C104.869 158.247 104.844 158.41 104.595 158.41C104.595 158.41 104.635 158.25 104.71 157.949C103.139 155.008 83.5669 139.002 83.5669 139.002L95.6744 108.055L104.595 85.4996L113.517 67.6653V45.6347L117.977 30.4231Z" fill="#D2B095"/>
<path d="M149.84 50.8801L118.615 30.4231V31.4722L146.653 58.7482L140.281 71.8616V84.9751L131.997 95.4658L113 127.41L104.596 157.886L135.82 154.739L200.819 150.542L225.034 136.904L205.916 106.481L182.976 66.6162L172.78 58.7482L149.84 50.8801Z" fill="#807973"/>
<path d="M159.5 111.5L150 103L140.5 112.5L135 124.5V136L123.5 142.5L117.5 156.5L125 164C127.333 168.5 132 172.5 132 172.5L140.5 183.5L159.5 189L174.5 200L185.5 207L194.5 192L190.5 177.5L183 156.5L179.5 140L174.5 125.5L159.5 111.5Z" fill="#B5A79D"/>
<path d="M193.001 116L188.001 109.5L185 118L187 127L185 136L179.5 141L181.5 156L194 193L185 207L205.5 201C211.333 201 216.5 197.5 216.5 197.5C216.5 197.5 223.333 197.167 226.5 196.5L234.5 189.5L237 186.5L240 184.5V183L229 165.5V157.5C229 157.5 213.001 138.2 213.001 137C213.001 135.5 209 135 209 133.5C209 132.3 200.333 127.333 196 125L193.001 116Z" fill="#6C6762"/>
<path d="M158 100.5L150.001 103L159.5 113L164 125.5L179.5 141L185.5 136.5L188 127.5L185.5 118L188 109.5L182 102.5L178.001 96.5L167.5 93L158 100.5Z" fill="#E6D4C6"/>
<path d="M82.5015 16V12.5L85.5015 6.5L104.001 0L120.001 7L125.001 11.5H122.001L113.501 12.5L107.001 19.5L100.001 17.5L94.0015 22.5L92.0015 24.5V18.5H86.5015V16H82.5015Z" fill="white" fill-opacity="0.6"/>
<g opacity="0.77">
<path d="M122.499 142.5C124.999 139 128.499 139 134.999 136C127.999 140 126.501 142.833 124.5 143.5C121.5 144.5 119.374 159.657 117.5 162C115.5 164.5 111.982 165.524 109.498 169C106.998 172.5 105.498 178 109.498 182.5C113.498 187 138.5 204 139 209.5C139.5 215 137 216 136.5 217C136 218 131 222 128.5 220C126 218 136.5 217 130.999 204.5C128.435 198.676 111.725 190.964 106.5 183.5C100.51 174.944 110.827 161.525 114.5 161C118 160.5 119.899 146.139 122.499 142.5Z" fill="#7DC6C8"/>
<path d="M72.7535 209.918C50.6912 210.596 44.4889 207.366 41.5235 222.504C38.5581 237.641 50.9063 237.094 57.9419 240.319C66.7363 244.351 70.5779 243.745 83.3246 239.818C96.0713 235.891 106.612 240.923 114.547 249.874C122.482 258.825 157.678 243.699 165.037 241.899C172.395 240.099 171.806 223.929 155.028 217.331C138.25 210.733 131.989 212.36 113.33 215.307C94.6706 218.255 100.331 209.069 72.7535 209.918Z" fill="#1ABAFF"/>
<path d="M75.4923 214.338C66.7938 212.518 53.5552 215.097 48.0233 216.613C45.1619 218.888 43.4451 221.732 48.0233 226.851C52.6015 231.97 57.7519 229.695 69.7696 231.97C81.7873 234.245 78.3537 232.539 88.0823 231.97C97.8109 231.401 108.112 236.52 119.557 242.208C131.003 247.895 132.147 240.501 142.448 238.795C152.749 237.089 144.737 234.814 145.882 229.695C147.026 224.576 134.436 224.576 130.43 220.026C126.424 215.476 107.539 217.751 102.961 220.026C98.3831 222.301 86.3654 216.613 75.4923 214.338Z" fill="#1899D0" fill-opacity="0.3"/>
<path d="M94.9499 224.576C94.9499 224.576 70.9145 209.788 78.9263 209.788C86.9381 209.788 96.5 213 101.5 215C104.934 216.706 112.5 215 124.5 213.769C137.09 211.494 142.448 213.769 142.448 213.769L138.443 223.438L126.425 235.951L109.257 230.832L94.9499 224.576Z" fill="#C4C4C4" fill-opacity="0.5"/>
</g>
<path d="M208.869 234.006C211.829 234.006 214.23 233.236 214.23 232.286C214.23 231.337 211.829 230.567 208.869 230.567C205.908 230.567 203.508 231.337 203.508 232.286C203.508 233.236 205.908 234.006 208.869 234.006Z" fill="black" fill-opacity="0.14"/>
<path d="M212.608 226.751L210.109 227.365L210.175 227.783L212.73 227L212.608 226.751Z" fill="#D18227"/>
<path d="M210.175 227.783L210.322 228.293L212.81 227.21L212.73 227L210.175 227.783Z" fill="#B06326"/>
<path d="M210.322 228.293L210.509 228.52L212.81 227.472V227.21L210.322 228.293Z" fill="#90471F"/>
<path d="M212.898 224.879L211.928 227.18L212.214 227.335L213.113 224.907L212.898 224.879Z" fill="#D18227"/>
<path d="M212.214 227.335L212.6 227.475L213.281 224.95L213.113 224.907L212.214 227.335Z" fill="#B06326"/>
<path d="M212.6 227.474L212.835 227.439L213.439 225.081L213.281 224.95L212.6 227.474Z" fill="#90471F"/>
<path d="M210.041 219.632L210.904 232.024L210.09 232.31L209.588 219.664L210.041 219.632Z" fill="#D18227"/>
<path d="M210.09 232.31L209.327 232.34L209.026 219.703L209.588 219.664L210.09 232.31Z" fill="#B06326"/>
<path d="M209.326 232.34L208.609 231.936L208.6 219.473L209.026 219.702L209.326 232.34Z" fill="#90471F"/>
<path d="M202.377 220.374L202.508 223.384L205.75 225.594L202.377 220.374Z" fill="#117B3E"/>
<path d="M202.377 220.374L202.723 216.783L207.015 218.273L202.377 220.374Z" fill="#117B3E"/>
<path d="M207.015 218.273L202.377 220.374L205.75 225.594L207.015 218.273Z" fill="#188843"/>
<path d="M205.75 225.594L210.56 226.009L206.178 221.801L205.75 225.594Z" fill="#117B3E"/>
<path d="M210.56 226.009L214.563 225.283L212.291 221.198L210.56 226.009Z" fill="#117B3E"/>
<path d="M212.291 221.198L216.73 222.238L214.563 225.283L212.291 221.198Z" fill="#188843"/>
<path d="M206.178 221.801L210.561 226.009L212.291 221.198L206.178 221.801Z" fill="#188843"/>
<path d="M207.015 218.273L212.291 221.198L206.178 221.801L207.015 218.273Z" fill="#27A048"/>
<path d="M212.291 221.198L217.623 219.143L216.73 222.238L212.291 221.198Z" fill="#117B3E"/>
<path d="M212.291 221.198L211.136 215.541L207.015 218.273L212.291 221.198Z" fill="#188843"/>
<path d="M211.136 215.541L217.623 219.143L212.291 221.198L211.136 215.541Z" fill="#27A048"/>
<path d="M211.136 215.541L215.402 214.96L214.367 217.377L211.136 215.541Z" fill="#49B449"/>
<path d="M214.367 217.377L217.623 219.143L215.402 214.96L214.367 217.377Z" fill="#49B449"/>
<path d="M217.623 219.143L217.161 213.775L215.402 214.96L217.623 219.143Z" fill="#27A048"/>
<path d="M207.015 218.273L205.489 211.985L202.723 216.783L207.015 218.273Z" fill="#188843"/>
<path d="M207.015 218.273L211.136 215.541L205.489 211.985L207.015 218.273Z" fill="#219647"/>
<path d="M211.136 215.541L211.828 209.736L215.402 214.96L211.136 215.541Z" fill="#78C043"/>
<path d="M211.828 209.736L215.346 208.82L215.402 214.96L211.828 209.736Z" fill="#49B449"/>
<path d="M215.346 208.82L217.161 213.775L215.402 214.96L215.346 208.82Z" fill="#78C043"/>
<path d="M211.828 209.736L205.489 211.985L211.136 215.541L211.828 209.736Z" fill="#27A048"/>
<path d="M205.489 211.985L202.258 209.592L202 212.88L205.489 211.985Z" fill="#188843"/>
<path d="M202 212.88L202.723 216.783L205.489 211.985L202 212.88Z" fill="#117B3E"/>
<path d="M205.489 211.985L204.765 205.676L202.258 209.592L205.489 211.985Z" fill="#27A048"/>
<path d="M205.489 211.985L211.828 209.737L209.985 207.297L205.489 211.985Z" fill="#49B449"/>
<path d="M209.985 207.297L204.766 205.676L205.489 211.985L209.985 207.297Z" fill="#78C043"/>
<path d="M213.646 205.894L211.828 209.736L209.985 207.297L213.646 205.894Z" fill="#78C043"/>
<path d="M213.647 205.894L215.346 208.82L211.828 209.736L213.647 205.894Z" fill="#9ECC4A"/>
<path d="M209.985 207.297L208.572 202L211.369 202.775L209.985 207.297Z" fill="#78C043"/>
<path d="M211.369 202.775L213.646 205.894L209.985 207.297L211.369 202.775Z" fill="#9ECC4A"/>
<path d="M208.572 202L204.766 205.676L209.985 207.297L208.572 202Z" fill="#49B449"/>
<path d="M109.293 197.006C111.144 197.006 112.644 196.525 112.644 195.931C112.644 195.338 111.144 194.856 109.293 194.856C107.443 194.856 105.942 195.338 105.942 195.931C105.942 196.525 107.443 197.006 109.293 197.006Z" fill="black" fill-opacity="0.14"/>
<path d="M111.631 192.471L110.069 192.855L110.11 193.116L111.707 192.626L111.631 192.471Z" fill="#D18227"/>
<path d="M110.11 193.116L110.202 193.435L111.757 192.758L111.707 192.626L110.11 193.116Z" fill="#B06326"/>
<path d="M110.202 193.435L110.319 193.577L111.757 192.922V192.758L110.202 193.435Z" fill="#90471F"/>
<path d="M111.812 191.301L111.206 192.739L111.385 192.836L111.947 191.318L111.812 191.301Z" fill="#D18227"/>
<path d="M111.385 192.836L111.626 192.923L112.051 191.345L111.947 191.318L111.385 192.836Z" fill="#B06326"/>
<path d="M111.626 192.923L111.773 192.901L112.151 191.427L112.051 191.345L111.626 192.923Z" fill="#90471F"/>
<path d="M110.026 188.021L110.565 195.767L110.056 195.946L109.743 188.041L110.026 188.021Z" fill="#D18227"/>
<path d="M110.056 195.946L109.58 195.965L109.392 188.065L109.743 188.041L110.056 195.946Z" fill="#B06326"/>
<path d="M109.58 195.965L109.131 195.712L109.126 187.922L109.392 188.065L109.58 195.965Z" fill="#90471F"/>
<path d="M105.236 188.485L105.317 190.366L107.344 191.748L105.236 188.485Z" fill="#117B3E"/>
<path d="M105.236 188.485L105.452 186.24L108.135 187.171L105.236 188.485Z" fill="#117B3E"/>
<path d="M108.135 187.172L105.236 188.485L107.344 191.748L108.135 187.172Z" fill="#188843"/>
<path d="M107.344 191.748L110.351 192.007L107.611 189.377L107.344 191.748Z" fill="#117B3E"/>
<path d="M110.351 192.007L112.853 191.554L111.432 189L110.351 192.007Z" fill="#117B3E"/>
<path d="M111.432 189L114.207 189.65L112.853 191.554L111.432 189Z" fill="#188843"/>
<path d="M107.612 189.377L110.351 192.007L111.432 189L107.612 189.377Z" fill="#188843"/>
<path d="M108.135 187.172L111.432 189L107.612 189.377L108.135 187.172Z" fill="#27A048"/>
<path d="M111.432 189L114.766 187.716L114.207 189.65L111.432 189Z" fill="#117B3E"/>
<path d="M111.433 189L110.711 185.464L108.135 187.171L111.433 189Z" fill="#188843"/>
<path d="M110.711 185.464L114.765 187.716L111.432 189L110.711 185.464Z" fill="#27A048"/>
<path d="M110.711 185.464L113.377 185.101L112.73 186.612L110.711 185.464Z" fill="#49B449"/>
<path d="M112.73 186.612L114.766 187.716L113.377 185.101L112.73 186.612Z" fill="#49B449"/>
<path d="M114.766 187.716L114.477 184.36L113.377 185.101L114.766 187.716Z" fill="#27A048"/>
<path d="M108.135 187.171L107.181 183.241L105.452 186.24L108.135 187.171Z" fill="#188843"/>
<path d="M108.135 187.171L110.711 185.464L107.181 183.241L108.135 187.171Z" fill="#219647"/>
<path d="M110.711 185.464L111.143 181.836L113.377 185.101L110.711 185.464Z" fill="#78C043"/>
<path d="M111.143 181.836L113.342 181.263L113.377 185.101L111.143 181.836Z" fill="#49B449"/>
<path d="M113.342 181.263L114.477 184.36L113.378 185.101L113.342 181.263Z" fill="#78C043"/>
<path d="M111.143 181.836L107.181 183.241L110.711 185.464L111.143 181.836Z" fill="#27A048"/>
<path d="M107.181 183.241L105.161 181.745L105 183.801L107.181 183.241Z" fill="#188843"/>
<path d="M105 183.801L105.452 186.24L107.181 183.241L105 183.801Z" fill="#117B3E"/>
<path d="M107.181 183.241L106.729 179.298L105.161 181.745L107.181 183.241Z" fill="#27A048"/>
<path d="M107.181 183.241L111.143 181.836L109.991 180.311L107.181 183.241Z" fill="#49B449"/>
<path d="M109.991 180.311L106.729 179.298L107.181 183.241L109.991 180.311Z" fill="#78C043"/>
<path d="M112.28 179.434L111.143 181.836L109.991 180.311L112.28 179.434Z" fill="#78C043"/>
<path d="M112.28 179.434L113.342 181.263L111.143 181.836L112.28 179.434Z" fill="#9ECC4A"/>
<path d="M109.991 180.311L109.108 177L110.856 177.484L109.991 180.311Z" fill="#78C043"/>
<path d="M110.856 177.484L112.28 179.434L109.991 180.311L110.856 177.484Z" fill="#9ECC4A"/>
<path d="M109.108 177L106.729 179.298L109.991 180.311L109.108 177Z" fill="#49B449"/>
<path d="M41.2933 173.006C43.144 173.006 44.6443 172.525 44.6443 171.931C44.6443 171.338 43.144 170.856 41.2933 170.856C39.4426 170.856 37.9424 171.338 37.9424 171.931C37.9424 172.525 39.4426 173.006 41.2933 173.006Z" fill="black" fill-opacity="0.14"/>
<path d="M43.6308 168.471L42.0688 168.855L42.1096 169.116L43.7071 168.626L43.6308 168.471Z" fill="#D18227"/>
<path d="M42.1096 169.116L42.2018 169.435L43.7567 168.758L43.7071 168.626L42.1096 169.116Z" fill="#B06326"/>
<path d="M42.2019 169.435L42.3189 169.577L43.7568 168.922V168.758L42.2019 169.435Z" fill="#90471F"/>
<path d="M43.8119 167.301L43.2056 168.739L43.3846 168.836L43.9467 167.318L43.8119 167.301Z" fill="#D18227"/>
<path d="M43.3845 168.836L43.6256 168.923L44.0512 167.345L43.9465 167.318L43.3845 168.836Z" fill="#B06326"/>
<path d="M43.6257 168.923L43.7729 168.901L44.1505 167.427L44.0512 167.345L43.6257 168.923Z" fill="#90471F"/>
<path d="M42.0263 164.021L42.5653 171.767L42.0565 171.946L41.7427 164.041L42.0263 164.021Z" fill="#D18227"/>
<path d="M42.0565 171.946L41.5795 171.965L41.3916 164.065L41.7427 164.041L42.0565 171.946Z" fill="#B06326"/>
<path d="M41.5796 171.965L41.1311 171.712L41.1257 163.922L41.3917 164.065L41.5796 171.965Z" fill="#90471F"/>
<path d="M37.2358 164.485L37.3174 166.366L39.3439 167.748L37.2358 164.485Z" fill="#117B3E"/>
<path d="M37.2358 164.485L37.4521 162.24L40.1347 163.171L37.2358 164.485Z" fill="#117B3E"/>
<path d="M40.1347 163.172L37.2358 164.485L39.3439 167.748L40.1347 163.172Z" fill="#188843"/>
<path d="M39.3438 167.748L42.3507 168.007L39.6115 165.377L39.3438 167.748Z" fill="#117B3E"/>
<path d="M42.3508 168.007L44.8525 167.554L43.4323 165L42.3508 168.007Z" fill="#117B3E"/>
<path d="M43.4324 165L46.2071 165.65L44.8525 167.554L43.4324 165Z" fill="#188843"/>
<path d="M39.6116 165.377L42.3508 168.007L43.4323 165L39.6116 165.377Z" fill="#188843"/>
<path d="M40.1346 163.172L43.4323 165L39.6116 165.377L40.1346 163.172Z" fill="#27A048"/>
<path d="M43.4324 165L46.7656 163.716L46.2071 165.65L43.4324 165Z" fill="#117B3E"/>
<path d="M43.4325 165L42.7109 161.464L40.1348 163.171L43.4325 165Z" fill="#188843"/>
<path d="M42.7107 161.464L46.7655 163.716L43.4323 165L42.7107 161.464Z" fill="#27A048"/>
<path d="M42.7107 161.464L45.3773 161.101L44.7301 162.612L42.7107 161.464Z" fill="#49B449"/>
<path d="M44.7302 162.612L46.7656 163.716L45.3774 161.101L44.7302 162.612Z" fill="#49B449"/>
<path d="M46.7657 163.716L46.4767 160.36L45.3774 161.101L46.7657 163.716Z" fill="#27A048"/>
<path d="M40.1347 163.171L39.1808 159.241L37.4521 162.24L40.1347 163.171Z" fill="#188843"/>
<path d="M40.1345 163.171L42.7107 161.464L39.1807 159.241L40.1345 163.171Z" fill="#219647"/>
<path d="M42.7107 161.464L43.1433 157.836L45.3773 161.101L42.7107 161.464Z" fill="#78C043"/>
<path d="M43.1433 157.836L45.3418 157.263L45.3773 161.101L43.1433 157.836Z" fill="#49B449"/>
<path d="M45.342 157.263L46.4767 160.36L45.3775 161.101L45.342 157.263Z" fill="#78C043"/>
<path d="M43.1433 157.836L39.1807 159.241L42.7107 161.464L43.1433 157.836Z" fill="#27A048"/>
<path d="M39.1808 159.241L37.1613 157.745L37 159.801L39.1808 159.241Z" fill="#188843"/>
<path d="M37 159.801L37.4521 162.24L39.1808 159.241L37 159.801Z" fill="#117B3E"/>
<path d="M39.1808 159.241L38.7287 155.298L37.1614 157.745L39.1808 159.241Z" fill="#27A048"/>
<path d="M39.1807 159.241L43.1433 157.836L41.9908 156.311L39.1807 159.241Z" fill="#49B449"/>
<path d="M41.9911 156.311L38.7288 155.298L39.1809 159.241L41.9911 156.311Z" fill="#78C043"/>
<path d="M44.2799 155.434L43.1434 157.836L41.991 156.311L44.2799 155.434Z" fill="#78C043"/>
<path d="M44.2798 155.434L45.3418 157.263L43.1433 157.836L44.2798 155.434Z" fill="#9ECC4A"/>
<path d="M41.9909 156.311L41.1079 153L42.8561 153.484L41.9909 156.311Z" fill="#78C043"/>
<path d="M42.8562 153.484L44.2799 155.434L41.991 156.311L42.8562 153.484Z" fill="#9ECC4A"/>
<path d="M41.1081 153L38.7288 155.298L41.9911 156.311L41.1081 153Z" fill="#49B449"/>
</svg>
