<svg width="302" height="394" viewBox="0 0 302 394" fill="none" xmlns="http://www.w3.org/2000/svg">
<path d="M271 363.356C271.96 364.406 284.667 368.463 290.5 367.733C290.5 367.733 287.5 326.144 282.5 326.874C277.5 327.604 267 358.978 271 363.356Z" fill="#F8DBBA"/>
<path d="M271 363.356C271.96 364.406 284.667 368.463 290.5 367.733C290.5 367.733 287.5 326.144 282.5 326.874C277.5 327.604 267 358.978 271 363.356Z" fill="url(#paint0_linear)"/>
<path d="M271 363.356C271.96 364.406 284.667 368.463 290.5 367.733C290.5 367.733 287.5 326.144 282.5 326.874C277.5 327.604 267 358.978 271 363.356Z" stroke="black"/>
<path d="M29.5 360.446C28.54 361.497 15.8333 365.554 10 364.824C10 364.824 13 323.235 18 323.965C23 324.695 33.5 356.069 29.5 360.446Z" fill="#F8DBBA"/>
<path d="M29.5 360.446C28.54 361.497 15.8333 365.554 10 364.824C10 364.824 13 323.235 18 323.965C23 324.695 33.5 356.069 29.5 360.446Z" fill="url(#paint1_linear)"/>
<path d="M29.5 360.446C28.54 361.497 15.8333 365.554 10 364.824C10 364.824 13 323.235 18 323.965C23 324.695 33.5 356.069 29.5 360.446Z" stroke="black"/>
<path d="M16.5 90.4742C8.49999 75.8815 1.5 46.6963 9.50002 25.5371C22 7.29632 50.4999 43.0481 46.5 86.0963L16.5 90.4742Z" fill="#F8DBBA"/>
<path d="M16.5 90.4742C8.49999 75.8815 1.5 46.6963 9.50002 25.5371C22 7.29632 50.4999 43.0481 46.5 86.0963L16.5 90.4742Z" fill="url(#paint2_linear)" fill-opacity="0.8"/>
<path d="M16.5 90.4742C8.49999 75.8815 1.5 46.6963 9.50002 25.5371C22 7.29632 50.4999 43.0481 46.5 86.0963L16.5 90.4742Z" stroke="black"/>
<path d="M276.381 91.7019C284.381 77.1093 291.381 47.9241 283.381 26.7648C270.881 8.52406 242.381 44.2759 246.381 87.324L276.381 91.7019Z" fill="#F8DBBA"/>
<path d="M276.381 91.7019C284.381 77.1093 291.381 47.9241 283.381 26.7648C270.881 8.52406 242.381 44.2759 246.381 87.324L276.381 91.7019Z" fill="url(#paint3_linear)" fill-opacity="0.8"/>
<path d="M276.381 91.7019C284.381 77.1093 291.381 47.9241 283.381 26.7648C270.881 8.52406 242.381 44.2759 246.381 87.324L276.381 91.7019Z" stroke="black"/>
<path d="M14 50.3444C20.8 59.6837 20.5 80.2593 17 89.7444C24.5 91.2037 44.5 87.5556 44.5 87.5556C44.5 68.5852 37.6667 59.1 35 50.3444H14Z" fill="#F8DBBA"/>
<path d="M14 50.3444C20.8 59.6837 20.5 80.2593 17 89.7444C24.5 91.2037 44.5 87.5556 44.5 87.5556C44.5 68.5852 37.6667 59.1 35 50.3444H14Z" fill="url(#paint4_linear)"/>
<path d="M14 50.3444C20.8 59.6837 20.5 80.2593 17 89.7444C24.5 91.2037 44.5 87.5556 44.5 87.5556C44.5 68.5852 37.6667 59.1 35 50.3444H14Z" stroke="black"/>
<path d="M278.5 52.5333C271.7 61.8726 272 82.4482 275.5 91.9333C268 93.3926 248 89.7445 248 89.7445C248 70.7741 254.833 61.2889 257.5 52.5333H278.5Z" fill="#F8DBBA"/>
<path d="M278.5 52.5333C271.7 61.8726 272 82.4482 275.5 91.9333C268 93.3926 248 89.7445 248 89.7445C248 70.7741 254.833 61.2889 257.5 52.5333H278.5Z" fill="url(#paint5_linear)"/>
<path d="M278.5 52.5333C271.7 61.8726 272 82.4482 275.5 91.9333C268 93.3926 248 89.7445 248 89.7445C248 70.7741 254.833 61.2889 257.5 52.5333H278.5Z" stroke="black"/>
<path d="M29 327.604C38.5 258.289 56 -4.37779 9.5 25.5371C20.5 -3.8147e-06 86 35.0223 152.5 25.5371C247 33.5629 276.5 7.29634 282.5 25.5371C251.5 3.62396e-05 270 319.578 272.5 329.793C212 350.952 40.5 332.711 29 327.604Z" fill="#F8DBBA"/>
<path d="M29 327.604C38.5 258.289 56 -4.37779 9.5 25.5371C20.5 -3.8147e-06 86 35.0223 152.5 25.5371C247 33.5629 276.5 7.29634 282.5 25.5371C251.5 3.62396e-05 270 319.578 272.5 329.793C212 350.952 40.5 332.711 29 327.604Z" fill="url(#paint6_linear)" fill-opacity="0.5"/>
<path d="M29 327.604C38.5 258.289 56 -4.37779 9.5 25.5371C20.5 -3.8147e-06 86 35.0223 152.5 25.5371C247 33.5629 276.5 7.29634 282.5 25.5371C251.5 3.62396e-05 270 319.578 272.5 329.793C212 350.952 40.5 332.711 29 327.604Z" stroke="black"/>
<path d="M23.0001 389.622C16.0001 383.056 18.0001 324.685 18.0001 324.685C18.0001 324.685 170.5 342.196 283 324.685C278.5 337.089 283 377.219 278.5 385.974C195 378.678 30.0001 396.189 23.0001 389.622Z" fill="#F8DBBA"/>
<path d="M23.0001 389.622C16.0001 383.056 18.0001 324.685 18.0001 324.685C18.0001 324.685 170.5 342.196 283 324.685C278.5 337.089 283 377.219 278.5 385.974C195 378.678 30.0001 396.189 23.0001 389.622Z" fill="url(#paint7_linear)" fill-opacity="0.5"/>
<path d="M23.0001 389.622C16.0001 383.056 18.0001 324.685 18.0001 324.685C18.0001 324.685 170.5 342.196 283 324.685C278.5 337.089 283 377.219 278.5 385.974C195 378.678 30.0001 396.189 23.0001 389.622Z" stroke="black"/>
<defs>
<linearGradient id="paint0_linear" x1="270" y1="343.656" x2="294.855" y2="354.605" gradientUnits="userSpaceOnUse">
<stop/>
<stop offset="1" stop-opacity="0"/>
</linearGradient>
<linearGradient id="paint1_linear" x1="30.5" y1="340.747" x2="5.64508" y2="351.696" gradientUnits="userSpaceOnUse">
<stop/>
<stop offset="1" stop-opacity="0"/>
</linearGradient>
<linearGradient id="paint2_linear" x1="40" y1="51.8037" x2="17.6596" y2="57.2714" gradientUnits="userSpaceOnUse">
<stop/>
<stop offset="1" stop-opacity="0"/>
</linearGradient>
<linearGradient id="paint3_linear" x1="252.881" y1="53.0314" x2="275.222" y2="58.4991" gradientUnits="userSpaceOnUse">
<stop/>
<stop offset="1" stop-opacity="0"/>
</linearGradient>
<linearGradient id="paint4_linear" x1="49" y1="61.2889" x2="28.084" y2="65.5889" gradientUnits="userSpaceOnUse">
<stop/>
<stop offset="1" stop-opacity="0"/>
</linearGradient>
<linearGradient id="paint5_linear" x1="243.5" y1="63.4778" x2="264.416" y2="67.7778" gradientUnits="userSpaceOnUse">
<stop/>
<stop offset="1" stop-opacity="0"/>
</linearGradient>
<linearGradient id="paint6_linear" x1="84.5" y1="348.033" x2="85.5644" y2="303.539" gradientUnits="userSpaceOnUse">
<stop/>
<stop offset="1" stop-opacity="0"/>
</linearGradient>
<linearGradient id="paint7_linear" x1="155.5" y1="391.082" x2="156.565" y2="333.451" gradientUnits="userSpaceOnUse">
<stop/>
<stop offset="1" stop-opacity="0"/>
</linearGradient>
</defs>
</svg>
