<svg width="232" height="80" viewBox="0 0 232 80" fill="none" xmlns="http://www.w3.org/2000/svg">
<path d="M193.906 64.2131C144.676 68.2131 79.3708 69.7131 35.6666 64.2131C39.2835 58.6131 37.676 42.7131 36.6713 34.7131C106.498 46.7131 179.338 37.2131 193.906 34.7131C191.093 42.3131 192.734 57.7131 193.906 64.2131Z" fill="#FF0000"/>
<path d="M192.901 52.9088C211.79 55.3088 222.54 49.9088 225.554 46.9088L214 44.4088L202.446 38.4088L211.488 34.9088L218.019 29.4088C220.53 25.5755 225.755 17.5088 226.559 15.9088C227.362 14.3088 212.158 22.9088 204.455 27.4088H196.418L171.803 26.4088V27.4088L194.408 34.9088L192.901 52.9088Z" fill="#FF0000"/>
<path d="M21.0986 52.7131L7.03282 48.2131V47.2131L14.568 45.2131L28.1314 38.2131L19.5915 34.2131C16.9123 32.0464 11.4535 27.4131 11.0516 26.2131C10.6497 25.0131 6.19558 18.0464 4.01874 14.7131C8.20497 17.7131 16.7784 23.8131 17.5821 24.2131C18.3859 24.6131 27.6291 26.7131 32.1502 27.7131L58.7746 26.2131L60.2817 27.7131L36.6713 35.2131L38.1784 42.2131V52.7131C38.1784 53.9131 32.4851 53.8798 29.6385 53.7131L21.0986 52.7131Z" fill="#FF0000" stroke="black"/>
<path fill-rule="evenodd" clip-rule="evenodd" d="M34.3459 65.4091C34.3459 62.1675 36.8471 57.2496 36.8471 54.008C22.455 55.272 9.60057 54.0774 0.69978 45.16C8.20369 45.9814 14.4332 45.016 25.8448 38.1147C13.2964 35.8854 6.92664 21.5067 0 11C25.7859 29.6667 37.8941 26.9467 61.5304 24.92C61.5304 28.354 58.8687 32.3563 61.7313 36.6464C77.5657 39.4042 93.3108 38.1169 107 38.1276C122.55 37.6599 155.82 39.3834 169.291 36.6283C171.249 33.4112 169.57 28.3446 169.492 24.9019C193.127 26.9389 205.236 29.6644 231.022 11C224.096 21.4896 217.726 35.8789 205.178 38.1093C216.589 45.0069 222.819 45.9739 230.323 45.1531C221.422 54.0683 208.567 55.2624 194.175 54.0032C194.175 57.2448 196.676 62.1627 196.676 65.4043C168.227 70.6949 128.295 68.8784 107.206 68.7131C75.5017 68.0624 53.1446 70.4625 34.3447 65.4119L34.3459 65.4091ZM190.33 62.5951C187.316 47.9226 189.949 46.0186 192.735 35.5322C168.423 39.0801 165.272 41.7131 107.206 41.7131C60.2816 41.7131 57.8799 39.7629 38.2845 35.5504C41.0704 46.0368 42.6995 54.0215 37.879 62.6134C52.2441 66.7131 107.206 65.4091 107.206 65.4091C107.206 65.4091 180.785 67.7357 190.33 62.5951ZM28.3164 52.2731C33.0515 52.2375 36.0595 51.0658 37.259 51.3357C37.259 44.0792 35.4969 41.0456 35.4969 33.7885C43.3689 31.33 49.209 27.9795 57.4266 27.0382C37.7675 27.3395 30.8066 36.1683 7.63894 19.0819C16.6617 31.8877 24.4369 37.7982 32.9418 37.5267C27.2718 39.9497 23.3813 46.8222 11.798 47.9406C18.6139 51.4492 24.1381 52.3045 28.3164 52.2731ZM202.701 52.2549C206.879 52.2862 212.404 51.4312 219.22 47.9226C207.636 46.8044 203.746 39.9317 198.076 37.5088C206.581 37.7803 214.356 31.8698 223.379 19.064C200.211 36.1504 193.25 27.3216 173.591 27.0202C181.809 27.9617 187.649 31.3123 195.521 33.7706C195.521 41.0272 193.759 44.0608 193.759 51.3178C194.958 51.0479 197.966 52.2192 202.701 52.2549Z" fill="#A00000"/>
</svg>
