<svg width="480" height="294" viewBox="0 0 480 294" fill="none" xmlns="http://www.w3.org/2000/svg">
<path d="M8.71593 238.668L9.06381 239.748L10.1976 239.707C31.014 238.957 68.1083 234.01 106.471 222.646C144.805 211.291 184.617 193.468 210.673 166.84C219.757 157.556 226.928 149.701 232.9 143.159C235.415 140.405 237.717 137.883 239.86 135.585C247.136 127.784 252.546 122.604 258.323 119.375C264.035 116.183 270.214 114.841 279.125 114.984C288.09 115.128 299.707 116.769 316.258 119.48C322.814 120.554 328.431 121.625 333.419 122.575C333.929 122.672 334.433 122.768 334.93 122.863C340.279 123.88 344.93 124.743 349.234 125.278C357.9 126.355 365.197 126.108 374.242 123.198C383.216 120.311 393.865 114.817 409.28 105.526C423.877 96.7277 442.841 84.465 468.81 67.672C470.289 66.716 471.79 65.7453 473.314 64.7597L475.359 63.4375L473.259 62.206L458.759 53.706L457.984 53.2519L457.218 53.7201C446.719 60.1369 437.027 67.7124 427.577 75.1274L427.117 75.4884C417.802 82.797 408.721 89.9229 399.213 95.7402C379.971 107.514 359.087 113.869 331.455 105.071C296.127 93.8216 276.532 93.7343 258.759 101.835C249.948 105.851 241.662 111.844 232.191 119.28C229.621 121.297 226.964 123.421 224.181 125.645C216.671 131.647 208.248 138.378 198.178 145.712C187.517 153.476 178.616 160.921 170.271 167.901C167.93 169.859 165.633 171.781 163.353 173.662C152.931 182.263 142.837 190.06 130.411 196.896C105.582 210.555 71.2484 220.482 6.22676 224.866L4.31121 224.995L4.8999 226.822L8.71593 238.668Z" fill="#6F4E37" stroke="#867350" stroke-width="3"/>
</svg>
